<svg width="1728" height="1117" viewBox="0 0 1728 1117" fill="none" xmlns="http://www.w3.org/2000/svg">
<rect width="1728" height="1117" fill="#1E1E1E"/>
<g clip-path="url(#clip0_0_1)">
<rect width="1728" height="1117" fill="white"/>
<path d="M535.434 134.208C584.364 169.158 614.421 233.466 610.227 291.483C605.334 348.801 566.889 400.527 536.133 460.641C505.377 520.755 483.708 589.257 437.574 617.916C390.741 646.575 320.142 635.391 260.028 608.13C199.914 580.17 150.285 536.832 111.84 480.912C73.395 425.691 46.134 358.587 50.328 290.085C54.522 222.282 90.87 153.081 146.091 118.83C201.312 83.88 275.406 83.88 346.704 87.375C418.002 91.569 485.805 98.559 535.434 134.208Z" fill="url(#paint0_linear_0_1)"/>
<path d="M716.704 190.384C733.24 206.92 740.416 231.88 748.216 259.024C756.016 286.168 764.128 315.496 754.456 337.336C744.784 359.176 717.328 372.904 688 385.072C658.984 397.24 627.784 407.848 601.576 400.048C575.68 392.56 554.776 366.352 546.664 339.52C538.864 312.376 543.544 284.296 552.592 261.208C561.64 237.808 574.744 219.4 591.28 202.864C608.128 186.64 628.72 171.976 651.496 168.856C674.584 165.736 700.48 174.16 716.704 190.384Z" fill="url(#paint1_linear_0_1)"/>
<path d="M914.392 573.8C983.928 607.625 1050.07 668.675 1056.86 735.5C1063.64 802.325 1011.06 874.925 964.424 947.525C917.784 1020.95 877.08 1093.55 817.72 1111.7C758.36 1129.85 680.344 1093.55 604.872 1063.03C528.552 1031.68 453.928 1006.1 429.336 956.6C404.744 907.1 430.184 833.675 453.928 769.325C477.672 705.8 500.568 651.35 541.272 612.575C581.976 572.975 640.488 548.225 706.632 539.975C771.928 530.9 845.704 539.15 914.392 573.8Z" fill="url(#paint2_linear_0_1)"/>
<path d="M1207.74 919.744C1216.59 928.595 1220.43 941.955 1224.61 956.484C1228.78 971.013 1233.12 986.711 1227.95 998.401C1222.77 1010.09 1208.07 1017.44 1192.37 1023.95C1176.84 1030.47 1160.14 1036.14 1146.12 1031.97C1132.25 1027.96 1121.07 1013.93 1116.72 999.57C1112.55 985.041 1115.05 970.011 1119.9 957.653C1124.74 945.128 1131.75 935.275 1140.6 926.424C1149.62 917.74 1160.64 909.891 1172.84 908.221C1185.19 906.551 1199.05 911.06 1207.74 919.744Z" fill="url(#paint3_linear_0_1)"/>
<g clip-path="url(#clip1_0_1)">
<path d="M1416.24 780.312C1366.04 825.087 1291.13 843.145 1243.23 806.826C1195.98 769.84 1176.41 679.128 1145.35 618.876C1114.28 557.305 1071.72 526.193 1042.84 482.39C1014.61 437.92 998.747 380.776 1013.96 331.818C1029.19 284.177 1074.85 245.389 1115.81 199.409C1156.11 154.096 1192.38 102.243 1245.95 63.3574C1299.52 24.4723 1370.39 -0.126193 1414.94 31.6204C1459.49 63.367 1477.06 152.126 1531.74 204.179C1585.78 256.899 1677.58 272.247 1703.14 314.113C1728.7 355.98 1689.33 424.348 1647.77 474.949C1605.57 526.217 1560.49 559.066 1525.54 610.904C1490.61 664.059 1466.44 735.536 1416.24 780.312Z" fill="url(#paint4_linear_0_1)"/>
</g>
</g>
<defs>
<linearGradient id="paint0_linear_0_1" x1="49.9024" y1="634.712" x2="598.591" y2="74.1273" gradientUnits="userSpaceOnUse">
<stop stop-color="#F87537"/>
<stop offset="1" stop-color="#FBA81F"/>
</linearGradient>
<linearGradient id="paint1_linear_0_1" x1="542.712" y1="402.716" x2="776.439" y2="187.271" gradientUnits="userSpaceOnUse">
<stop stop-color="#F87537"/>
<stop offset="1" stop-color="#FBA81F"/>
</linearGradient>
<linearGradient id="paint2_linear_0_1" x1="419.302" y1="1116.56" x2="996.672" y2="481.317" gradientUnits="userSpaceOnUse">
<stop stop-color="#F87537"/>
<stop offset="1" stop-color="#FBA81F"/>
</linearGradient>
<linearGradient id="paint3_linear_0_1" x1="1114.61" y1="1033.4" x2="1239.71" y2="918.078" gradientUnits="userSpaceOnUse">
<stop stop-color="#F87537"/>
<stop offset="1" stop-color="#FBA81F"/>
</linearGradient>
<linearGradient id="paint4_linear_0_1" x1="1341.22" y1="-41.604" x2="1386.47" y2="877.753" gradientUnits="userSpaceOnUse">
<stop stop-color="#F87537"/>
<stop offset="1" stop-color="#FBA81F"/>
</linearGradient>
<clipPath id="clip0_0_1">
<rect width="1728" height="1117" fill="white"/>
</clipPath>
<clipPath id="clip1_0_1">
<rect width="932" height="932" fill="white" transform="translate(1988.95 402.868) rotate(134.295)"/>
</clipPath>
</defs>
</svg>
