<svg width="363" height="67" viewBox="0 0 363 67" fill="none" xmlns="http://www.w3.org/2000/svg">
<g clip-path="url(#clip0_2238_5558)">
<path d="M37.209 64.1957C37.22 64.9262 37.516 65.6235 38.032 66.1401C38.549 66.6567 39.247 66.9519 39.977 66.9632H49.029C49.767 66.9633 50.476 66.6731 51.002 66.1553C51.528 65.6376 51.829 64.9337 51.841 64.1957V33.4457C47.191 35.6567 42.272 37.2516 37.209 38.19V64.1957Z" fill="#A7A1E9"/>
<path d="M51.841 2.21248C51.845 1.63808 51.636 1.08258 51.255 0.652777C50.873 0.222977 50.347 -0.0507227 49.776 -0.115723H39.274C38.703 -0.0507227 38.177 0.222977 37.795 0.652777C37.414 1.08258 37.205 1.63808 37.209 2.21248V25.0993C42.234 24.1807 47.141 22.7074 51.841 20.7064V2.21248Z" fill="#A7A1E9"/>
<path d="M37.2091 25.0993C29.8631 26.5038 22.3361 26.6819 14.9321 25.6264V1.94888C14.9321 1.40128 14.7141 0.876177 14.3271 0.488977C13.9401 0.101777 13.4141 -0.115723 12.8671 -0.115723H2.32111C1.77411 -0.115723 1.24811 0.101777 0.861107 0.488977C0.474107 0.876177 0.256104 1.40128 0.256104 1.94888V64.8986C0.266104 65.1974 0.338109 65.4909 0.468109 65.7603C0.597109 66.0297 0.782109 66.2692 1.00911 66.4635C1.23711 66.6577 1.50211 66.8025 1.78811 66.8885C2.07511 66.9745 2.3761 67 2.6731 66.9632H12.5151C12.8171 66.9871 13.1201 66.9498 13.4061 66.8534C13.6931 66.7571 13.9571 66.6038 14.1831 66.4027C14.4091 66.2015 14.5921 65.9568 14.7201 65.6832C14.8491 65.4096 14.9211 65.1128 14.9321 64.8107V38.4536C22.3301 39.5768 29.8671 39.4134 37.2091 37.9704C42.2721 37.032 47.1911 35.4371 51.8411 33.2261V20.4868C47.1501 22.5631 42.2431 24.1101 37.2091 25.0993Z" fill="#8121F2"/>
<path d="M87.432 10.7346C89.102 10.7346 89.9799 10.7346 89.9799 11.3936V29.3164H108.303V11.3936C108.303 10.9104 109.182 10.7346 110.72 10.7346H111.335C113.005 10.7346 113.883 10.7346 113.883 11.3936V52.4229C113.883 52.8621 113.005 53.0379 111.467 53.0379H110.939C109.314 53.0379 108.435 53.0379 108.435 52.4229V33.9289H89.9799V52.4229C89.9799 52.8621 89.1019 53.0379 87.5639 53.0379H86.905C85.279 53.0379 84.356 53.0379 84.356 52.4229V11.3936C84.356 10.9104 85.2789 10.7346 86.7729 10.7346H87.432Z" fill="#3D3E42"/>
<path d="M126.889 39.42C126.847 40.7732 127.087 42.1204 127.594 43.3759C128.1 44.6313 128.863 45.7675 129.833 46.7121C131.807 48.2499 134.28 49.0012 136.776 48.8207C139.463 48.783 142.107 48.1372 144.509 46.9318C145.036 46.9318 145.388 46.5804 146.003 48.0739L146.267 48.7768C146.926 50.2704 146.882 50.6218 146.267 50.9293C143.026 52.7634 139.357 53.7034 135.633 53.6529C126.23 53.6529 121.485 47.6786 121.485 38.2339C121.485 28.7893 126.758 21.3214 135.458 21.3214C137.692 21.2275 139.905 21.794 141.82 22.9503C143.735 24.1066 145.266 25.8014 146.223 27.8228C147.591 30.7632 148.253 33.9822 148.156 37.2236C148.156 38.9807 148.156 39.3321 147.585 39.3321L126.889 39.42ZM142.752 35.0271C142.752 30.6343 140.467 26.2414 135.545 26.2414C130.624 26.2414 127.9 29.0089 127.065 35.0271H142.752Z" fill="#3D3E42"/>
<path d="M162.217 37.3114C163.483 40.5987 164.554 43.9577 165.424 47.3711C166.039 44.6475 167.226 41.1771 168.412 37.7068L173.641 22.6393C173.641 22.1121 174.476 22.0243 176.277 22.0243C178.079 22.0243 179.221 22.0242 179.001 22.8588L167.885 53.6089C166.826 57.0447 165.126 60.2492 162.876 63.0535C161.751 64.241 160.385 65.1733 158.868 65.7871C157.352 66.401 155.722 66.6822 154.088 66.6118C152.462 66.6111 150.857 66.2511 149.386 65.5575C148.727 65.2061 148.859 64.7229 149.386 63.6686L149.606 62.9656C150.089 61.5599 150.265 61.3403 150.88 61.516C151.922 61.8298 153 62.007 154.088 62.0431C157.955 62.0431 160.239 59.9346 162.876 53.2575L151.188 22.5075C150.88 21.7607 151.583 21.6729 153.956 21.6729C156.329 21.6729 156.768 21.6728 156.944 22.2878L162.217 37.3114Z" fill="#3D3E42"/>
<path d="M187.394 10.7346C189.02 10.7346 189.898 10.7346 189.898 11.3936V29.3164H208.397V11.3936C208.397 10.9104 209.276 10.7346 210.77 10.7346H211.429C213.098 10.7346 213.977 10.7346 213.977 11.3936V52.4229C213.977 52.8621 213.098 53.0379 211.561 53.0379H210.901C209.276 53.0379 208.397 53.0379 208.397 52.4229V33.9289H189.942V52.4229C189.942 52.8621 189.064 53.0379 187.57 53.0379H186.911C185.241 53.0379 184.362 53.0379 184.362 52.4229V11.3936C184.362 10.9104 185.241 10.7346 186.779 10.7346H187.394Z" fill="#3D3E42"/>
<path d="M225.577 22.0243C227.818 22.0243 228.038 22.2439 228.038 22.7271V38.1021C228.038 42.7586 228.038 45.1747 229.532 46.8879C230.189 47.6037 231.003 48.1583 231.91 48.5087C232.817 48.8592 233.792 48.996 234.761 48.9086C237.085 48.9604 239.354 48.199 241.176 46.7561C242.406 45.6139 243.065 43.8568 243.065 37.3554V22.8589C243.065 22.4197 243.417 22.1561 245.394 22.1561H245.921C247.942 22.1561 248.338 22.3757 248.338 22.8589V42.8904C248.338 46.8879 248.338 51.0172 248.338 52.4668C248.338 52.95 248.338 53.1697 245.921 53.1697H245.658C243.636 53.1697 243.285 53.1697 243.285 52.4668V49.9629C242.021 51.2651 240.492 52.2803 238.802 52.9397C237.111 53.5991 235.298 53.8873 233.486 53.7847C232.038 53.8351 230.594 53.5839 229.248 53.047C227.901 52.5101 226.681 51.6991 225.665 50.6657C223.449 47.8243 222.425 44.2326 222.809 40.65V23.0786C222.809 22.6393 222.809 22.3757 225.138 22.3757L225.577 22.0243Z" fill="#3D3E42"/>
<path d="M260.07 8.36255C262.442 8.36255 262.486 8.67005 262.486 9.06545V24.8797C264.842 22.608 268.001 21.3604 271.274 21.4094C273.414 21.3657 275.519 21.9609 277.319 23.1189C279.119 24.277 280.533 25.9454 281.38 27.9108C282.582 30.6817 283.182 33.6764 283.138 36.6964C283.138 47.1075 278.041 53.653 268.067 53.653C264.4 53.7464 260.757 53.0419 257.389 51.5883C257.389 51.5883 257.389 51.2368 257.389 50.9732V9.06545C257.389 8.62615 257.389 8.36255 259.894 8.36255H260.07ZM262.486 47.8983C264.132 48.5141 265.871 48.841 267.627 48.8647C274.306 48.8647 277.602 43.9886 277.602 36.96C277.602 29.9314 275.097 26.2415 270.088 26.2415C267.937 26.2339 265.857 27.0154 264.244 28.438C263.164 29.6399 262.596 31.2162 262.662 32.8307C262.662 34.5 262.662 37.2236 262.662 40.7818L262.486 47.8983Z" fill="#3D3E42"/>
<path d="M292.848 8.36255C295.177 8.36255 295.265 8.67005 295.265 9.06545V24.8797C296.426 23.7469 297.801 22.8565 299.31 22.2607C300.819 21.6649 302.431 21.3755 304.053 21.4094C306.193 21.3657 308.298 21.9609 310.098 23.1189C311.898 24.277 313.312 25.9454 314.159 27.9108C315.382 30.675 315.983 33.6744 315.917 36.6964C315.917 47.1075 310.82 53.653 300.889 53.653C297.209 53.7416 293.552 53.0375 290.168 51.5883C290.098 51.3893 290.098 51.1722 290.168 50.9732V9.06545C290.168 8.62615 290.168 8.36255 292.717 8.36255H292.848ZM295.265 47.8983C296.894 48.5178 298.619 48.845 300.362 48.8647C307.085 48.8647 310.336 43.9886 310.336 36.96C310.336 29.9314 307.832 26.2415 302.823 26.2415C300.682 26.2196 298.612 27.0037 297.023 28.438C296.478 29.0265 296.057 29.7187 295.785 30.4734C295.513 31.2281 295.396 32.0298 295.441 32.8307C295.441 34.5 295.441 37.2236 295.441 40.7818L295.265 47.8983Z" fill="#3D3E42"/>
<path d="M325.452 8.36255C327.341 8.36255 327.736 8.36255 327.868 9.15325C328.176 10.7786 328.22 17.939 328.22 26.7247V46.2289C328.22 48.4254 328.527 49.1721 330.461 49.1721H331.032C331.339 49.1721 331.383 49.3919 331.383 50.7537C331.383 52.2912 331.383 52.5108 331.032 52.6426C330.158 52.959 329.237 53.1224 328.308 53.1258C327.464 53.1914 326.617 53.0402 325.848 52.6865C325.079 52.3328 324.413 51.7885 323.914 51.1051C323.049 49.1777 322.716 47.0546 322.947 44.9551V25.2311C322.947 19.0811 322.947 11.4375 322.595 9.15325C322.595 8.53825 323.123 8.36255 325.1 8.36255H325.452Z" fill="#3D3E42"/>
<path d="M341.929 39.42C341.886 40.7732 342.126 42.1204 342.633 43.3759C343.14 44.6313 343.903 45.7675 344.873 46.7121C346.846 48.2499 349.32 49.0012 351.815 48.8207C354.503 48.783 357.146 48.1372 359.548 46.9318C360.076 46.9318 360.427 46.5804 361.042 48.0739L361.306 48.7768C361.965 50.2704 361.921 50.6218 361.306 50.9293C358.066 52.7634 354.396 53.7034 350.673 53.6529C341.138 53.6529 336.261 47.7225 336.261 38.2339C336.261 28.7454 341.797 21.3214 350.497 21.3214C352.732 21.2275 354.945 21.794 356.859 22.9503C358.774 24.1066 360.305 25.8014 361.262 27.8228C362.63 30.7632 363.292 33.9822 363.195 37.2236C363.195 38.9807 363.195 39.3321 362.624 39.3321L341.929 39.42ZM357.791 35.0271C357.791 30.6343 355.506 26.2414 350.585 26.2414C345.664 26.2414 342.939 29.0089 342.105 35.0271H357.791Z" fill="#3D3E42"/>
</g>
<defs>
<clipPath id="clip0_2238_5558">
<rect width="363" height="67" fill="white"/>
</clipPath>
</defs>
</svg>
