<svg width="223" height="117" viewBox="0 0 223 117" fill="none" xmlns="http://www.w3.org/2000/svg">
<path d="M109.172 7.94111C110.044 11.1967 109.087 14.4917 107.994 17.7734C106.905 21.0402 105.684 24.3212 103.773 27.3545C102.9 28.7422 101.86 30.2383 100.517 31.3302C99.2369 32.37 97.5892 33.0491 95.9439 33.2776C94.3518 33.4998 92.6297 33.3354 91.4115 32.4786C90.3376 31.7244 89.7195 30.5424 89.5214 29.3123C89.3309 28.1212 89.403 26.6317 90.1207 25.4952C90.4205 25.021 90.9394 24.5839 91.5615 24.5867C92.2883 24.5901 92.9587 25.1104 93.2303 25.6586C93.9212 27.0622 93.0783 29.0334 92.5265 30.4753C91.8287 32.3024 90.9106 34.0805 89.9224 35.8177C88.6523 38.048 87.3113 40.2483 85.5697 42.2449C84.7477 43.1867 83.8532 44.1077 82.8254 44.8768C81.9726 45.5149 80.9589 46.1372 79.8879 46.2746C78.8062 46.4132 77.8821 45.9634 77.2214 45.2793C76.9307 44.9795 76.9039 44.8866 76.7559 44.503C76.5941 44.0806 76.4781 43.6399 76.3876 43.1953C76.1714 42.1411 76.0909 41.0406 76.1291 39.9489C76.1591 39.0783 76.2634 38.1008 76.7063 37.3395L76.9197 37.0719L77.0078 37.0078L77.1963 36.9458C76.8806 36.7712 76.5634 36.5971 76.2464 36.4235C75.9278 39.3358 74.7801 42.2333 73.1203 44.8633C71.4469 47.5173 69.2375 49.77 66.6209 51.7431C65.1977 52.8161 63.6879 54.1036 61.9007 54.5917C60.9767 54.8435 61.413 56.0487 62.3312 55.7982C64.0275 55.3353 65.5122 54.2036 66.8683 53.1825C68.2294 52.1575 69.5699 51.1325 70.7601 49.9437C73.2363 47.4707 75.1511 44.5696 76.3856 41.5114C77.0794 39.7928 77.5198 38.0388 77.7156 36.261C77.7657 35.7976 77.1743 35.6276 76.7657 35.7388C75.6796 36.0338 75.1738 37.1248 74.9395 37.9999C74.615 39.2129 74.6056 40.4833 74.696 41.6867C74.783 42.8188 74.9522 43.9854 75.3654 45.0371C75.7678 46.0673 76.6458 46.8941 77.7696 47.3264C80.3911 48.3331 83.1688 46.4522 85.0393 44.71C87.0733 42.8138 88.6515 40.5901 90.0377 38.3165C91.194 36.4202 92.2847 34.4907 93.1834 32.5028C94.0116 30.6724 94.901 28.6405 94.9227 26.7034C94.9431 24.971 93.6606 23.1793 91.5202 23.2899C89.6722 23.3854 88.6219 25.0063 88.2345 26.4381C87.4203 29.4487 88.4937 33.0035 91.7048 34.1976C95.08 35.4519 99.6241 34.1877 102.195 31.5661C105.12 28.581 106.883 24.8449 108.267 21.2154C108.956 19.412 109.58 17.5867 110.125 15.7569C110.665 13.9373 111.061 12.0763 111.005 10.2354C110.977 9.28302 110.819 8.34899 110.576 7.4402C110.363 6.64244 108.96 7.14685 109.172 7.94111Z" fill="#212121"/>
<path d="M160.799 95.3753C161.899 95.1964 163.043 95.6955 163.897 96.3423C164.742 96.9803 165.737 98.0439 165.348 99.2007C164.971 100.328 163.438 100.852 162.356 100.502C161.382 100.189 160.813 99.2439 160.652 98.2891C160.475 97.2391 160.655 96.1711 161.137 95.2185C161.352 94.7936 161.663 94.3846 162.041 94.0869C162.257 93.9174 162.488 93.7565 162.74 93.6485C162.899 93.5807 163.067 93.5042 163.239 93.469C163.52 93.4122 163.776 93.495 164.025 93.6071C165.302 94.1759 166.133 95.2758 166.222 96.6679C166.303 97.9213 165.555 99.1048 164.465 99.7126C164.008 99.9673 163.428 100.209 162.94 99.9235C162.678 99.7716 162.439 99.53 162.262 99.2879C161.85 98.7259 161.635 98.096 161.61 97.4C161.567 96.179 162.467 94.8985 163.828 95.1161C164.241 95.1816 164.607 95.328 164.964 95.5417C165.316 95.7536 165.48 96.2228 165.351 96.6073C165.225 96.9818 165.098 97.3568 164.972 97.7312C164.818 98.193 164.266 98.5078 163.787 98.3352C163.312 98.1626 163.016 97.6632 163.183 97.1682C163.308 96.7947 163.434 96.42 163.559 96.0456C163.688 96.4008 163.819 96.7555 163.946 97.1112L163.765 97.0083L163.78 97.0162L163.617 96.9602C163.428 96.8907 163.679 96.9772 163.678 96.9626C163.676 96.9397 163.288 96.9571 163.527 96.9441C163.704 96.9344 163.566 96.9372 163.525 96.9538L163.61 96.9199L163.505 96.9768L163.595 96.9206L163.525 96.9899L163.581 96.9358L163.527 97.0247L163.558 96.9649L163.487 97.2009C163.512 97.1908 163.52 96.9474 163.505 97.1247L163.493 97.2434L163.492 97.5381C163.504 97.5375 163.455 97.2722 163.49 97.4653L163.512 97.5906L163.592 97.8907L163.57 97.8275L163.626 97.9464L163.701 98.0848L163.718 98.1191L163.742 98.1473L163.849 98.2657L163.968 98.375L163.956 98.3545C163.721 98.3137 163.484 98.2733 163.247 98.2329L163.194 98.2559L163.313 98.2089L163.481 98.1308L163.64 98.0445L163.74 97.9832L163.683 98.0245L163.957 97.7881C164.03 97.7162 164.075 97.5864 163.966 97.7919L164.063 97.6652L164.249 97.3544L164.23 97.3819L164.29 97.2144L164.335 97.0437C164.386 96.8725 164.317 97.2595 164.326 97.0818L164.348 96.7302C164.357 96.5054 164.362 96.7745 164.359 96.777L164.332 96.5767L164.258 96.28C164.225 96.121 164.357 96.5072 164.255 96.2724L164.189 96.1319L164.114 95.9942L164.057 95.9045L164.108 95.9694L163.897 95.7216L163.735 95.5688L163.811 95.63L163.743 95.5773L163.393 95.3575L163.311 95.3164L163.388 95.3522L163.149 95.2603L163.641 95.2813C163.447 95.3382 163.717 95.2429 163.681 95.2604L163.554 95.3154L163.262 95.4796L163.316 95.4454L163.197 95.546L163.1 95.6382L163.041 95.6959L163.021 95.7272L162.928 95.8557L162.763 96.1302L162.721 96.2121L162.774 96.1009L162.717 96.2288L162.599 96.5579L162.521 96.8513L162.511 96.8932L162.5 96.9823C162.472 97.1874 162.46 97.3945 162.463 97.601L162.469 97.7586L162.456 97.6211L162.466 97.709L162.515 98.0077L162.583 98.2705C162.613 98.3715 162.693 98.4365 162.556 98.2086L162.609 98.3362L162.725 98.5558C162.749 98.5941 162.844 98.7311 162.739 98.5806C162.631 98.428 162.742 98.5773 162.77 98.61L162.845 98.6863L162.78 98.6384L162.989 98.7669L162.918 98.7268L163.023 98.7565L162.947 98.7437L163.082 98.7518L163.224 98.7483L163.141 98.7489L163.296 98.7155L163.393 98.6912L163.45 98.6627L163.602 98.5824L163.547 98.6217L163.607 98.5685L163.53 98.6672L163.6 98.5633L163.553 98.6538L163.542 98.7437L163.544 98.6073L163.547 98.7156L163.512 98.5913L163.541 98.6796L163.466 98.5337L163.387 98.4053L163.42 98.4548L163.199 98.2025L162.902 97.9247L162.985 97.9928L162.903 97.9272L162.73 97.8011C162.502 97.6435 162.239 97.5383 162.013 97.3829L162.112 97.4288L162.016 97.3878L161.826 97.3148L161.475 97.2098L161.383 97.1901L161.488 97.2095L161.314 97.1912L161.167 97.1887C160.982 97.1814 161.419 97.1521 161.201 97.1876C160.717 97.2664 160.172 96.9986 160.082 96.4852C160 96.0126 160.279 95.46 160.799 95.3753Z" fill="#212121"/>
<path d="M145.587 87.9378C145.619 88.1465 145.649 88.3548 145.681 88.5643C145.132 88.5894 144.582 88.6148 144.034 88.6411C144.057 88.3345 144.089 88.0366 144.178 87.757C144.29 87.4107 144.413 87.1479 144.602 86.8654C144.861 86.4766 145.241 86.2068 145.647 86.1039C146.097 85.9904 146.598 86.1213 147.009 86.4544C147.491 86.846 147.786 87.4639 147.975 88.1105C148.043 88.3405 148.07 88.5849 148.022 88.8119C147.973 89.0478 147.836 89.2426 147.7 89.4065C147.561 89.5711 147.397 89.7176 147.215 89.8058C146.97 89.9239 146.711 89.9897 146.433 89.9453C146.136 89.8996 145.9 89.7676 145.63 89.5962L145.457 89.4149L145.275 89.0522C145.208 88.8485 145.161 88.5693 145.226 88.3714C145.33 88.0479 145.435 87.7245 145.54 87.401C145.621 87.1485 145.715 86.9441 145.916 86.8189C146.095 86.7071 146.359 86.6813 146.562 86.7849C146.766 86.889 146.965 87.0668 147.071 87.3203C147.17 87.5634 147.244 87.8896 147.165 88.1354C147.06 88.4589 146.955 88.7822 146.851 89.1057C146.716 88.6975 146.581 88.2892 146.447 87.881L146.486 87.9061L146.287 87.7806L146.562 87.9019L146.345 87.8408L146.565 87.8633L146.342 87.8734L146.517 87.8357L146.31 87.9199L146.536 87.7802L146.366 87.9274L146.604 87.6423C146.538 87.969 146.47 88.297 146.403 88.6238L146.327 88.3595L146.416 88.6283L146.199 88.1406L146.336 88.369L146.124 88.0872L146.297 88.2683L146.1 88.1053L146.299 88.23L146.072 88.1264L146.289 88.1883L146.037 88.1595L146.26 88.1491L145.994 88.2094L146.199 88.1258L145.914 88.3024L146.084 88.1556L145.805 88.4816L145.932 88.2837L145.735 88.7007L145.814 88.4637C145.752 88.6473 145.713 88.8404 145.692 89.0424L145.718 88.7778L145.712 88.8448C145.691 89.1094 145.643 89.3717 145.479 89.5457C145.341 89.6923 145.182 89.7731 144.991 89.7825C144.611 89.8008 144.144 89.443 144.065 88.9226C144.034 88.7131 144.003 88.5047 143.972 88.2961C143.93 88.0128 143.933 87.752 144.046 87.5126C144.147 87.3015 144.347 87.116 144.551 87.0823C144.763 87.0483 144.999 87.0882 145.189 87.2591C145.369 87.4198 145.547 87.6637 145.587 87.9378Z" fill="#212121"/>
<path d="M185.12 1.7068C184.742 5.58894 183.411 9.22255 181.862 12.7733C180.308 16.3354 178.745 19.8297 177.733 23.5924C177.425 24.7364 177.133 25.9106 176.644 26.9926C176.192 27.9925 175.582 28.9104 175.365 30.0009C175.129 31.1906 173.331 30.6054 173.566 29.4226C173.75 28.504 174.196 27.6842 174.621 26.8586C175.095 25.9389 175.396 24.9563 175.676 23.9616C176.212 22.0479 176.729 20.1491 177.448 18.2925C178.8 14.8036 180.533 11.4704 181.772 7.93561C182.49 5.88305 183.022 3.77944 183.233 1.6107C183.35 0.405821 185.238 0.492262 185.12 1.7068Z" fill="#212121"/>
<path d="M189.744 15.7158C184.844 15.4678 179.949 15.9973 175.062 16.2563C173.901 16.3169 172.398 16.5333 171.098 16.5974C169.818 16.6608 168.215 16.7535 167.095 16.0112C166.464 15.5949 166.57 14.7625 167.16 14.3801C167.341 14.2624 167.522 14.1456 167.701 14.0282C168.723 13.3664 169.598 15.0417 168.587 15.6982C168.406 15.8152 168.225 15.9328 168.045 16.0492C168.066 15.5063 168.087 14.9626 168.11 14.4183C168.907 14.9462 170.586 14.7525 171.612 14.6858C172.942 14.6009 174.262 14.4139 175.596 14.3471C180.342 14.1106 185.082 13.5872 189.84 13.8279C191.053 13.8901 190.962 15.7775 189.744 15.7158Z" fill="#212121"/>
<path d="M189.707 26.3527C187.58 22.3515 184.701 18.8834 181.579 15.6223C180.094 14.0729 178.552 12.5806 177.056 11.0421C175.711 9.65677 174.334 8.14184 173.731 6.27013C174.022 6.51672 174.313 6.76255 174.604 7.00915C174.351 7.00479 174.096 6.99976 173.842 6.99581C172.628 6.97367 172.721 5.08639 173.938 5.10864C174.191 5.113 174.446 5.11722 174.701 5.1221C175.146 5.13023 175.448 5.46992 175.574 5.86134C176.139 7.60529 177.725 9.04426 178.984 10.3062C180.481 11.8084 181.99 13.3014 183.447 14.8448C186.495 18.0692 189.288 21.5377 191.377 25.4686C191.948 26.5435 190.278 27.4265 189.707 26.3527Z" fill="#212121"/>
<g clip-path="url(#clip0_496_74861)">
<path d="M76.4841 87.3591C75.8345 84.4303 74.4276 81.8743 73.2551 79.1741C72.7098 77.9094 72.2628 76.6045 71.9181 75.271C71.6435 73.9273 71.1764 72.6303 70.5313 71.42C70.4658 71.3003 70.3632 71.2051 70.2389 71.1488C70.1147 71.0924 69.9755 71.0779 69.8423 71.1075C69.7091 71.137 69.5891 71.209 69.5003 71.3126C69.4115 71.4162 69.3588 71.5458 69.35 71.682C68.8138 75.3143 68.5911 79.0204 68.1992 82.6105C68.0648 84.3804 67.8331 86.1415 67.5052 87.886C67.4567 88.5107 67.2566 89.1141 66.922 89.644L66.7951 89.7643C66.8537 89.7513 66.6779 89.7903 66.7951 89.7643L66.6584 89.7946C66.4286 89.7825 66.1999 89.7545 65.974 89.7108C65.448 89.6022 64.896 89.4685 64.3938 89.3751C63.6073 89.2621 62.8111 89.2327 62.0185 89.2874C60.1995 89.3528 58.3847 89.6222 56.5549 89.6388C55.6611 89.5243 54.7529 89.6171 53.9007 89.91C52.6379 90.5896 53.7871 91.9838 54.4745 92.4971C55.7643 93.2936 57.1329 93.9545 58.5586 94.4696C59.3413 94.8628 60.1442 95.2147 60.9639 95.5237C61.8447 95.8018 62.7062 96.1376 63.5428 96.5291L63.3 96.1732C63.3049 96.2293 63.3001 96.2858 63.2858 96.3403C63.2578 96.4614 63.2189 96.5797 63.1696 96.6938C63.0195 97.0045 62.8377 97.2989 62.627 97.5722C62.2113 98.1458 61.736 98.6814 61.2705 99.2149C59.8968 100.687 58.6423 102.328 57.3867 103.918C56.9266 104.521 57.8277 105.121 58.355 104.727C59.787 103.771 61.3415 103.013 62.9765 102.473C63.7369 102.161 64.5191 101.854 65.2546 101.476C65.9902 101.098 66.4762 100.703 67.0534 100.35C67.5002 99.9882 68.063 99.8014 68.6372 99.8241C69.0993 100.052 69.4668 100.434 69.6759 100.905C70.5864 102.331 71.574 103.69 72.554 105.06C73.1611 105.95 73.6781 106.757 74.2201 107.63C74.7364 108.57 75.386 109.43 76.1487 110.183C76.4845 110.518 76.9129 110.744 77.3785 110.832C77.6031 110.849 77.827 110.793 78.0178 110.673C78.2086 110.553 78.3563 110.376 78.4395 110.167C78.8041 109.282 78.9189 108.314 78.7714 107.369C78.6692 106.192 78.4921 105.024 78.2413 103.87C78.0503 102.353 77.6754 100.864 77.1248 99.4369L77.1962 99.7591C77.1767 99.6712 77.2375 99.5758 77.2669 99.4771L77.384 99.4511L77.5012 99.4252C78.1054 99.2399 78.6998 99.0568 79.3247 98.9182C80.0262 98.7797 80.7099 98.5628 81.363 98.2715C82.0388 97.9475 82.6638 97.5323 83.319 97.1616C84.6198 96.4224 86.0193 95.8047 87.3753 95.1761C88.5694 94.7879 89.7291 94.3011 90.8424 93.7208C91.3144 93.401 91.267 92.5408 90.5804 92.5395C89.3895 92.5271 88.2039 92.6774 87.0195 92.6021C85.9467 92.4688 84.8672 92.3971 83.7862 92.3871C82.618 92.4311 81.4411 92.5283 80.274 92.6233C79.7475 92.667 79.2269 92.7653 78.7207 92.9166C78.2242 93.1266 77.6837 93.2113 77.1468 93.1633C77.2942 93.3662 77.4438 93.5789 77.5836 93.7937C77.6543 93.3273 78.2424 92.8384 78.5093 92.4718C78.9478 91.8624 79.4058 91.2487 79.8702 90.6643C80.7959 89.4346 81.7021 88.2093 82.5171 86.9428C83.1711 85.8304 83.8825 84.7529 84.6487 83.7146C85.2867 82.897 85.9607 81.9178 85.5186 80.8482C85.4347 80.705 85.3 80.5986 85.1412 80.5503C84.9824 80.502 84.8112 80.5153 84.6618 80.5875C81.2848 81.941 78.9873 85.0216 76.0785 87.193C76.0178 87.2495 75.9687 87.3174 75.9342 87.3929C75.8997 87.4684 75.8804 87.5499 75.8774 87.6329C75.8744 87.7158 75.8877 87.7985 75.9167 87.8763C75.9457 87.9541 75.9897 88.0254 76.0462 88.0862C76.1027 88.1469 76.1707 88.196 76.2461 88.2305C76.3216 88.265 76.4032 88.2843 76.4861 88.2873C76.569 88.2903 76.6518 88.277 76.7295 88.248C76.8073 88.219 76.8786 88.175 76.9394 88.1185C79.7408 86.0631 81.9676 83.0801 85.2568 81.7462L84.4001 81.4855C84.5279 81.7849 84.1883 82.2393 84.0341 82.4681C83.88 82.6969 83.446 83.2336 83.154 83.6261C82.3705 84.7116 81.7019 85.9457 80.9508 87.0853C80.1998 88.225 79.2166 89.5186 78.3148 90.6712C77.91 91.2015 77.5334 91.7664 77.1048 92.2815C76.7064 92.6895 76.4363 93.2052 76.3276 93.765C76.3192 93.9038 76.3576 94.0415 76.4369 94.1558C76.5161 94.2701 76.6315 94.3545 76.7645 94.3953C77.8978 94.6561 78.8341 94.1206 79.9275 93.9703C81.0209 93.82 82.3713 93.7663 83.5742 93.6941C84.678 93.6865 85.781 93.7533 86.8758 93.8938C88.0938 93.9822 89.2989 93.8275 90.5192 93.8334L90.2485 92.6131C89.3518 93.0891 88.4022 93.4578 87.4193 93.7118C86.3182 94.1507 85.2474 94.7262 84.1853 95.2486C83.1233 95.771 82.1197 96.3726 81.0826 96.9611C80.0112 97.4053 78.9016 97.7508 77.7675 97.9935C77.1263 98.1972 76.3519 98.3075 76.0642 98.9962C75.9735 99.1815 75.9238 99.3841 75.9183 99.5903C75.9128 99.7965 75.9516 100.002 76.0322 100.191C76.2941 100.773 76.4721 101.389 76.5608 102.02C76.7382 103.374 77.152 104.686 77.312 106.053C77.4397 106.804 77.5022 107.565 77.4988 108.327C77.505 108.641 77.4713 108.955 77.3986 109.261C77.3833 109.328 77.3637 109.394 77.34 109.458C77.34 109.458 77.2575 109.64 77.3551 109.526L77.2661 109.679C77.2075 109.692 77.2075 109.692 77.2661 109.679L77.1912 109.757L77.6545 109.583C77.4885 109.62 77.5666 109.602 77.4364 109.57C77.371 109.537 77.308 109.5 77.2478 109.458C77.0071 109.293 76.7932 109.091 76.6135 108.861C76.1735 108.344 75.7768 107.791 75.4275 107.209C75.1208 106.703 74.8238 106.196 74.5072 105.692C73.9588 104.79 73.3386 104.026 72.7543 103.192C72.17 102.359 71.4816 101.426 70.9136 100.528C70.5633 99.8265 70.0246 99.2366 69.3578 98.8243C67.5978 97.9548 65.7748 99.8956 64.3005 100.591C62.032 101.678 59.5577 102.299 57.5071 103.86L58.4754 104.67C59.2068 103.719 59.9643 102.793 60.7195 101.857L61.7526 100.603L61.9176 100.423L62.2529 100.042C62.7434 99.4823 63.2338 98.9228 63.6744 98.3232C64.1123 97.7661 64.4065 97.1099 64.531 96.4123C64.5722 96.238 64.5617 96.0555 64.5007 95.887C64.4397 95.7186 64.3309 95.5717 64.1875 95.4642C63.7013 95.1894 63.1909 94.9598 62.6628 94.7781C61.702 94.4747 60.7582 94.1198 59.8355 93.7151C59.0861 93.3385 58.34 93.0225 57.5581 92.6838C56.7817 92.3983 56.0397 92.027 55.3459 91.5766C55.0797 91.3998 54.8467 91.1776 54.6574 90.9201C54.5544 90.7791 54.627 90.7835 54.5793 90.9375C54.5315 91.0915 54.448 91.0383 54.5966 91.0156L54.8309 90.9636C54.9239 90.9369 55.0184 90.9159 55.114 90.9008C55.4177 90.8846 55.716 90.8902 56.0143 90.8957C58.0686 90.9215 60.0493 90.6153 62.0885 90.5727C62.9223 90.5165 63.7599 90.5576 64.5842 90.6952C65.2431 90.8892 65.9222 91.0067 66.608 91.0452C68.4302 91.0405 68.6591 88.3778 68.8711 87.0708C69.7061 81.969 69.8361 76.8288 70.6028 71.7421L69.3922 72.0106C70.0106 73.163 70.4605 74.3982 70.7281 75.6784C71.0755 77.0288 71.5294 78.3495 72.0856 79.6281C73.2137 82.2664 74.626 84.8007 75.254 87.6319C75.2902 87.7951 75.3897 87.9371 75.5306 88.0269C75.6716 88.1166 75.8424 88.1467 76.0055 88.1106C76.1686 88.0744 76.3107 87.9749 76.4005 87.8339C76.4902 87.693 76.5203 87.5222 76.4841 87.3591Z" fill="black"/>
<path d="M75.7763 98.898C75.4776 99.2034 75.2594 99.5782 75.1413 99.9888C75.0232 100.399 75.0089 100.833 75.0997 101.25C75.1301 101.665 75.2205 102.073 75.3682 102.461C75.5042 102.712 75.654 102.956 75.817 103.191C75.9697 103.455 76.0535 103.754 76.0607 104.059C76.0951 104.676 76.0689 105.296 76.1348 105.917C76.1921 106.553 76.2846 107.186 76.4117 107.812C76.657 109.086 77.0395 110.331 77.5524 111.523L78.145 110.593C78.0669 110.61 78.0376 110.616 77.8977 110.494C77.7392 110.346 77.5964 110.182 77.4716 110.004C77.2191 109.651 77.0229 109.274 76.7877 108.906C76.043 107.72 75.1605 106.604 74.3518 105.452C73.5431 104.3 72.6802 103.088 71.7185 101.939C70.7305 100.865 69.7977 99.7424 68.9236 98.5743C68.8074 98.4531 68.6483 98.3824 68.4805 98.3775C68.3127 98.3726 68.1497 98.4338 68.0266 98.5479C67.9103 98.6646 67.8426 98.8211 67.8373 98.9859C67.832 99.1506 67.8895 99.3112 67.9981 99.4351C68.8751 100.664 69.8888 101.771 70.8168 102.907C71.7448 104.043 72.7281 105.382 73.6355 106.656C74.5049 107.805 75.306 108.877 76.0204 110.019C76.467 110.739 77.1076 111.826 78.1065 111.851C78.2169 111.852 78.3257 111.825 78.4227 111.772C78.5197 111.719 78.6017 111.643 78.661 111.55C78.7202 111.457 78.7549 111.35 78.7615 111.24C78.7682 111.13 78.7467 111.02 78.6991 110.92C77.8241 108.809 77.3678 106.548 77.3557 104.263C77.3603 103.73 77.2433 103.202 77.0135 102.721C76.7623 102.363 76.5589 101.975 76.4087 101.564C76.294 101.047 76.1056 100.198 76.6274 99.8257C77.2741 99.3238 76.4132 98.3982 75.7763 98.898V98.898Z" fill="black"/>
<path d="M77.953 99.939L77.8002 99.5734L77.7685 100.216C79.1814 98.4578 81.4411 97.5162 83.2649 96.2717C84.3947 95.4936 85.6074 94.8432 86.8808 94.3327C88.2173 93.8006 89.5906 93.3424 90.8881 92.7268L90.1321 92.5974L90.4162 92.8622C91.0082 93.4069 91.9294 92.5265 91.3418 92.0013L91.0577 91.7366C90.959 91.6385 90.8323 91.5736 90.6951 91.5508C90.5579 91.528 90.417 91.5485 90.292 91.6094C88.95 92.2553 87.5354 92.7125 86.1545 93.2748C85.4856 93.534 84.834 93.8359 84.2039 94.1787C83.6007 94.5071 83.056 94.9147 82.4832 95.2876C80.4999 96.5982 78.2348 97.6537 76.7047 99.5296C76.6452 99.6249 76.6118 99.7343 76.6079 99.8466C76.6041 99.959 76.6299 100.07 76.6827 100.17L76.8453 100.533C77.1628 101.272 78.2824 100.685 77.953 99.939V99.939Z" fill="black"/>
</g>
<path d="M202.149 65.4862L202.147 65.4866L202.145 65.4852L202.149 65.4862Z" fill="#272726"/>
<path d="M198.007 77.8929C198.011 77.8021 197.991 77.7119 197.949 77.6315L197.866 77.4848L197.934 77.4315L197.937 77.4436L198.043 77.2838C198.029 77.0448 197.964 76.8115 197.853 76.5996V76.5996C197.838 76.5738 197.824 76.5498 197.811 76.5253L197.84 76.41L197.798 76.3357C197.815 76.3064 197.823 76.2729 197.821 76.2391C197.819 76.2054 197.808 76.1729 197.789 76.1453C197.824 76.1031 197.845 76.0505 197.848 75.9955C197.85 75.9405 197.835 75.886 197.804 75.8403V75.8403L197.879 75.8002C197.903 75.7859 197.925 75.77 197.947 75.7525L198.146 75.7483L197.947 75.7525L197.91 75.6844C197.904 75.6584 197.883 75.6359 197.868 75.6102L197.826 75.5359C197.959 75.5356 198.032 75.4794 198.003 75.335L197.96 75.2629C197.954 75.2352 197.932 75.2127 197.918 75.1887L197.95 75.0725L198.023 75.031L198.085 75.0172C198.071 74.9531 198.03 74.9477 197.979 74.9498L197.957 74.9131L197.936 74.8777L197.968 74.7598C197.993 74.7468 198.017 74.7324 198.04 74.7166L198.189 74.6328L198.25 74.5901C198.231 74.5035 198.224 74.4143 198.211 74.3284L198.282 74.2816C198.344 74.2412 198.393 74.1844 198.425 74.1174C198.456 74.0504 198.468 73.9761 198.46 73.9027C198.554 73.7709 198.633 73.6371 198.509 73.4794L198.581 73.4435L198.65 73.5571L198.581 73.4435C198.845 73.2687 199.043 73.0122 199.146 72.7134C199.141 72.6892 199.121 72.6663 199.107 72.6423L199.137 72.5265C199.198 72.4894 199.245 72.4463 199.242 72.3688L199.316 72.3252L199.391 72.2833L199.421 72.1675L199.495 72.1239L199.653 72.2378C199.658 72.262 199.683 72.2803 199.697 72.3026C199.752 72.2013 199.688 72.123 199.639 72.0412C199.68 72.0506 199.723 72.0499 199.764 72.0393C199.805 72.0286 199.843 72.0082 199.874 71.9799C199.906 71.9515 199.93 71.916 199.945 71.8764C199.96 71.8368 199.965 71.7941 199.96 71.7521L200.109 71.6627L200.111 71.6731C200.134 71.657 200.158 71.6426 200.183 71.6298L200.254 71.5814L200.292 71.4714L200.552 71.4138C200.571 71.4233 200.592 71.4297 200.614 71.4326C200.592 71.4297 200.571 71.4233 200.552 71.4138C200.637 71.3476 200.702 71.2732 200.56 71.2049C200.464 71.161 200.365 71.1222 200.265 71.0887C200.251 71.0647 200.238 71.0402 200.224 71.0162L200.15 71.0543C200.136 71.0239 200.114 70.9981 200.086 70.9799C200.057 70.9617 200.025 70.9519 199.991 70.9515C199.977 70.9208 199.955 70.8946 199.927 70.8761C199.898 70.8576 199.865 70.8475 199.832 70.8471L199.715 70.8147C199.709 70.787 199.688 70.7628 199.675 70.7367L199.601 70.7803C199.532 70.652 199.448 70.5508 199.282 70.5714L199.165 70.5373L199.145 70.5019L199.124 70.4665C199.11 70.4357 199.088 70.4096 199.059 70.3911C199.031 70.3726 198.998 70.3625 198.964 70.3621C198.935 70.3123 198.906 70.2642 198.879 70.2157C198.898 70.1533 198.912 70.0895 198.921 70.0249C198.912 70.0895 198.898 70.1533 198.879 70.2157L198.805 70.2559L198.689 70.2253C198.591 70.0528 198.489 69.8827 198.393 69.7098C198.319 69.5827 198.261 69.6573 198.201 69.7215L197.925 69.5847L198 69.5428C197.922 69.4134 197.859 69.2756 197.812 69.1322C197.789 69.0266 197.749 68.8483 197.544 68.9212C197.431 68.6665 197.345 68.4204 197.611 68.1925C197.409 68.0375 197.183 67.9024 197.138 67.6165C197.131 67.5871 197.074 67.567 197.04 67.5438L196.998 67.4678L197.069 67.4267C197.135 67.4423 197.2 67.4624 197.264 67.4869C197.2 67.4624 197.135 67.4423 197.069 67.4267C197.063 67.4007 197.045 67.3774 197.033 67.3547C197.131 67.3328 197.297 67.3579 197.212 67.1715C197.127 66.9851 197.224 66.94 197.345 66.8769C197.385 66.8208 197.406 66.7522 197.401 66.6829C197.397 66.6136 197.369 66.5478 197.322 66.4969C197.387 66.4027 197.457 66.2854 197.588 66.3616C197.793 66.4634 197.837 66.3665 197.838 66.1863C197.843 66.1025 197.868 66.021 197.91 65.9484C197.952 65.8759 198.011 65.8145 198.082 65.769L198.227 65.686L198.344 65.7128L198.418 65.6709L198.375 65.5987L198.67 65.4298C198.762 65.4765 198.812 65.449 198.818 65.3442L198.893 65.3023L199.008 65.3329L199.154 65.246L199.229 65.2041C199.258 65.2205 199.291 65.2284 199.324 65.2268C199.358 65.2251 199.39 65.2141 199.418 65.195V65.195C199.521 65.2502 199.597 65.1842 199.681 65.1366L199.725 65.2121C199.736 65.1733 199.749 65.1341 199.76 65.0935L199.871 65.1253L199.987 65.1576C200.04 65.193 200.064 65.1786 200.063 65.1153C200.165 65.1163 200.265 65.2067 200.367 65.135L200.485 65.1652L200.598 65.1927C200.624 65.1817 200.649 65.1688 200.673 65.1543C200.703 65.171 200.737 65.1787 200.771 65.1767C200.805 65.1746 200.838 65.1628 200.865 65.1426L200.978 65.1757L201.098 65.2073L201.216 65.2392C201.222 65.2669 201.243 65.2912 201.258 65.3169L201.333 65.2677C201.362 65.2844 201.396 65.2924 201.429 65.2907C201.463 65.289 201.496 65.2777 201.523 65.2582L201.609 65.4007L201.68 65.3578L201.803 65.3903C201.809 65.4163 201.828 65.4375 201.843 65.4615C201.783 65.4695 201.722 65.4583 201.668 65.4293C201.726 65.4576 201.792 65.4654 201.855 65.4515V65.4515L201.928 65.41C201.943 65.4332 201.958 65.4572 201.971 65.4821V65.4821C201.995 65.467 202.02 65.4536 202.046 65.4419C202.051 65.4679 202.073 65.4904 202.087 65.5127L202.16 65.4764C202.184 65.525 202.222 65.5653 202.269 65.5918C202.316 65.6183 202.37 65.6299 202.424 65.6249C202.457 65.6508 202.494 65.6699 202.534 65.681C202.574 65.6921 202.615 65.6951 202.657 65.6896L202.775 65.7233L202.892 65.7535C202.929 65.8125 202.973 65.8627 203.051 65.8601C203.066 65.8903 203.089 65.9159 203.117 65.9342C203.145 65.9525 203.178 65.9629 203.212 65.9641V65.9641L203.328 65.9982C203.375 66.1147 203.458 66.2124 203.567 66.2756C203.675 66.3388 203.801 66.364 203.925 66.347C203.938 66.3705 203.953 66.3928 203.969 66.4135C204.05 66.4974 204.13 66.5813 204.207 66.6676L204.159 66.6965L204.207 66.6676C204.287 66.659 204.331 66.7075 204.366 66.7686L204.438 66.7327C204.467 66.7808 204.494 66.8292 204.523 66.8773C204.588 66.9292 204.671 66.9532 204.754 66.9441L204.844 67.0786L204.915 67.0409C204.938 67.1059 204.981 67.1618 205.038 67.2002C205.095 67.2386 205.163 67.2575 205.232 67.254L205.28 67.3233L205.318 67.3965C205.308 67.4218 205.302 67.4482 205.299 67.4752C205.302 67.4482 205.308 67.4218 205.318 67.3965L205.386 67.3704C205.404 67.398 205.428 67.4209 205.457 67.4367C205.485 67.4526 205.517 67.461 205.55 67.4612C205.701 67.5693 205.807 67.5132 205.892 67.3636C205.853 67.2886 205.814 67.2157 205.775 67.1407L205.836 67.1036L205.95 67.1273C205.945 67.103 205.94 67.0788 205.92 67.0559C205.944 67.0453 205.967 67.0311 205.987 67.0138C205.987 66.8719 206.005 66.7306 206.041 66.5933C206.076 66.5383 206.06 66.5146 205.996 66.516C205.991 66.49 205.971 66.4688 205.957 66.4465C206.003 66.432 206.045 66.4061 206.078 66.3711C206.111 66.3362 206.135 66.2933 206.147 66.2467C206.159 66.2001 206.159 66.1512 206.147 66.1046C206.135 66.058 206.111 66.0153 206.078 65.9804V65.9804C206.101 65.9643 206.126 65.9516 206.151 65.9368C206.145 65.9091 206.127 65.8841 206.114 65.8596C206.097 65.8375 206.081 65.8144 206.066 65.7904L206.196 65.6962C206.171 65.6491 206.145 65.6024 206.12 65.5552L206.081 65.482C206.301 65.4551 206.191 65.3433 206.139 65.2477C206.154 65.2199 206.161 65.1885 206.161 65.1568C206.16 65.1251 206.15 65.0942 206.133 65.0674L206.203 65.0228C206.358 64.8449 206.363 64.6115 206.429 64.4007C206.387 64.3282 206.344 64.2561 206.302 64.1836L206.372 64.139L206.457 64.0801C206.517 63.978 206.447 63.9009 206.4 63.8188L206.472 63.7755L206.546 63.7319C206.562 63.7028 206.57 63.6696 206.568 63.6363C206.567 63.6029 206.556 63.5706 206.536 63.5433L206.609 63.5017C206.662 63.5354 206.686 63.5227 206.681 63.4585C206.742 63.4231 206.791 63.3797 206.786 63.3008C206.921 63.3001 206.991 63.2426 206.969 63.1005L207.038 63.0597L207.157 63.0878L207.267 63.1179C207.261 63.0919 207.242 63.0707 207.228 63.0467L207.179 62.974L207.251 62.9307C207.257 62.9567 207.281 62.9767 207.295 62.999L207.364 62.9583C207.391 62.9486 207.416 62.9363 207.44 62.9216L207.609 63.022C207.668 62.9853 207.718 62.9397 207.714 62.8626L207.788 62.8207C207.908 63.0011 208.071 62.8342 208.21 62.8706C208.224 62.8946 208.238 62.9169 208.255 62.9406L208.328 62.9008L208.444 62.9332L208.488 63.0087L208.604 63.0411L208.72 63.0734C208.726 63.0994 208.747 63.1219 208.762 63.1459L208.878 63.1783L208.967 63.3238L209.081 63.3566C209.087 63.3825 209.108 63.405 209.123 63.4291C209.212 63.5437 209.227 63.7218 209.409 63.7559L209.496 63.9019C209.563 63.9996 209.585 64.1382 209.734 64.1559L209.82 64.3023C209.756 64.4761 209.909 64.5804 209.959 64.7164C209.973 64.7404 209.987 64.7627 210.003 64.7847L210.076 64.7449C210.09 64.776 210.112 64.8026 210.14 64.8214C210.169 64.8403 210.202 64.8505 210.236 64.8511L210.148 64.7033L210.219 64.6532L210.222 64.6653L210.287 64.6145C210.281 64.5886 210.26 64.5661 210.245 64.542C210.231 64.518 210.218 64.4936 210.206 64.4691C210.193 64.4447 210.224 64.3905 210.236 64.3516L210.266 64.2359L210.411 64.1511C210.384 64.1009 210.355 64.0511 210.327 64.0009L210.284 63.9288C210.279 63.8499 210.328 63.8065 210.387 63.7698C210.347 63.6879 210.327 63.5977 210.328 63.5067C210.374 63.4892 210.417 63.4622 210.452 63.4275C210.487 63.3928 210.514 63.3511 210.533 63.3052C210.572 63.1621 210.586 63.0154 210.725 62.912C210.77 62.8783 210.697 62.7856 210.662 62.7245C210.723 62.6874 210.771 62.6439 210.766 62.5651C210.761 62.5391 210.739 62.5166 210.725 62.4926L210.755 62.3768L210.787 62.2589C210.857 62.1618 211.159 62.2963 211.042 62.0209L211.188 61.9358L211.337 61.8502L211.387 61.7264L211.535 61.6408L211.608 61.5993C211.661 61.6347 211.687 61.6217 211.682 61.5557L211.64 61.4815L211.671 61.3657L211.85 61.355L211.892 61.4292C211.926 61.4177 211.956 61.3961 211.977 61.3674C211.999 61.3386 212.011 61.304 212.012 61.2681V61.2681L212.08 61.2277L212.154 61.1841L212.27 61.2164L212.302 61.0985L212.376 61.0566L212.492 61.0872C212.632 61.1507 212.721 61.0365 212.834 60.9896L212.95 61.022L213.056 61.0549L213.172 61.0872L213.288 61.1178L213.436 61.0323L213.521 61.1804C213.536 61.211 213.558 61.2368 213.587 61.255C213.615 61.2731 213.648 61.2827 213.682 61.2827C213.685 61.3911 213.723 61.4957 213.79 61.581C213.857 61.6663 213.949 61.7276 214.054 61.7559L214.128 61.7122C214.143 61.738 214.157 61.7621 214.17 61.7865L214.286 61.8188C214.301 61.8429 214.313 61.8673 214.328 61.8913C214.284 62.1263 214.479 62.261 214.556 62.4454C214.669 62.642 214.78 62.8407 214.893 63.0389L214.596 63.2083C214.574 63.2241 214.55 63.2367 214.526 63.2512C214.406 63.2669 214.37 63.1042 214.251 63.1178C214.245 63.2393 214.279 63.3592 214.348 63.4594V63.4594L214.463 63.4938L214.579 63.5227C214.584 63.4054 214.679 63.3697 214.759 63.321C214.76 63.2875 214.77 63.2549 214.789 63.227C214.808 63.1991 214.834 63.177 214.864 63.1634L214.908 63.2355L214.991 63.384L214.921 63.4268C214.948 63.4753 214.977 63.5234 215.006 63.5715C215.035 63.6195 215.058 63.6688 215.085 63.7172L215.058 63.8378L214.985 63.8776C214.95 63.8272 214.92 63.8157 214.889 63.8226C214.92 63.8157 214.95 63.8272 214.985 63.8776C214.842 63.971 214.895 64.0791 214.965 64.1816C215.007 64.1028 215.069 64.0356 215.143 63.9859C215.183 64.0672 215.203 64.1568 215.201 64.2473L215.129 64.2905L215.011 64.2586C214.997 64.2345 214.984 64.2101 214.969 64.1843C214.984 64.2101 214.997 64.2345 215.011 64.2586L215.129 64.2905C215.172 64.3626 215.214 64.4369 215.258 64.5107L215.183 64.5526L215.204 64.5898L215.227 64.6265C215.233 64.6525 215.254 64.675 215.267 64.6994L215.197 64.744L215.217 64.7794L215.238 64.8148C215.257 64.8439 215.268 64.8773 215.271 64.912C215.274 64.9466 215.267 64.9814 215.253 65.013V65.013C215.261 65.3307 215.074 65.6574 215.303 65.9625C215.28 65.9758 215.257 65.9906 215.235 66.0067C215.241 66.0326 215.264 66.0548 215.277 66.0792L215.202 66.1211L215.246 66.1949C215.26 66.219 215.273 66.2451 215.288 66.2692L215.257 66.3849L215.227 66.5007C215.241 66.5265 215.254 66.5509 215.267 66.5753L215.195 66.6186C214.958 66.7056 214.933 66.8908 214.99 67.0979C215.024 67.1859 215.07 67.2693 215.125 67.3459V67.3459L214.98 67.4306L215.062 67.5778C214.887 67.6966 214.893 67.8641 214.936 68.0433C214.936 68.1668 214.994 68.3029 214.843 68.391C214.848 68.4169 214.87 68.4394 214.884 68.4635C214.778 68.5252 214.67 68.5873 214.748 68.7407L214.676 68.7801C214.572 68.7253 214.497 68.7926 214.41 68.8393C214.456 68.918 214.516 68.9974 214.466 69.0937C214.417 69.1901 214.507 69.2062 214.551 69.2564C214.644 69.1849 214.789 69.1655 214.806 69.0184L214.952 68.9316L215.072 68.9666C215.095 68.9506 215.118 68.9363 215.143 68.9237C215.201 68.8853 215.252 68.8414 215.249 68.7639C215.377 68.6938 215.539 68.7213 215.659 68.6238C215.713 68.6592 215.737 68.6466 215.732 68.5806L215.8 68.5127L215.873 68.4729C215.887 68.497 215.903 68.5189 215.918 68.5429C215.948 68.5294 215.974 68.5077 215.993 68.4801C216.011 68.4525 216.022 68.4203 216.023 68.387L216.095 68.342L216.168 68.3022L216.214 68.3719L216.285 68.3325C216.309 68.3218 216.333 68.3093 216.355 68.2952L216.475 68.3212C216.499 68.3558 216.521 68.3856 216.535 68.4114C216.521 68.3856 216.499 68.3558 216.475 68.3212C216.465 68.2964 216.453 68.2724 216.439 68.2492L216.581 68.167L216.698 68.1937L216.772 68.1518L217.036 68.0934L217.109 68.0498L217.183 68.0061L217.33 67.9227C217.36 67.9391 217.393 67.9467 217.427 67.9447C217.461 67.9427 217.493 67.9312 217.52 67.9114L217.595 67.8695L217.71 67.9001L217.785 67.8582C217.888 67.9134 217.964 67.8475 218.048 67.7998C218.185 67.9837 218.304 67.8303 218.428 67.7772C218.565 67.9611 218.684 67.8077 218.809 67.7546C218.814 67.7806 218.836 67.8031 218.85 67.8289C218.95 67.8831 219.054 67.8472 219.155 67.852L219.199 67.9241L219.313 67.9624C219.256 68.1928 219.078 68.3541 218.97 68.5543L218.935 68.6691L218.862 68.7106L218.747 68.68L218.745 68.6804C218.591 68.6165 218.422 68.6014 218.259 68.6374C218.115 68.7092 217.956 68.7446 217.795 68.7403C217.632 68.7312 217.47 68.7672 217.326 68.8444C217.166 68.9174 216.989 68.9452 216.815 68.9251C216.476 69.1377 216.115 69.3116 215.738 69.4437V69.4437C215.716 69.4591 215.693 69.4722 215.668 69.4827C215.432 69.5757 215.21 69.6995 215.007 69.851C214.981 69.8744 214.948 69.8889 214.914 69.8923C214.879 69.8957 214.844 69.8879 214.815 69.87C214.675 69.8736 214.535 69.8776 214.491 70.0489C214.465 70.1528 214.382 70.1583 214.301 70.1673C214.119 70.3338 213.899 70.4547 213.661 70.5199C213.468 70.599 213.416 70.5215 213.463 70.2552C213.454 70.0937 213.355 69.965 213.37 69.7817C213.408 69.4102 213.682 69.1078 213.695 68.7291C213.697 68.7232 213.701 68.7179 213.706 68.714C213.712 68.71 213.718 68.7073 213.724 68.7063C213.948 68.7346 213.853 68.5561 213.888 68.4611C213.918 68.3972 213.954 68.3359 213.994 68.2777C214.013 68.3025 214.036 68.3238 214.063 68.3406C214.036 68.3238 214.013 68.3025 213.994 68.2777C213.973 67.9192 214.315 67.6853 214.289 67.328C214.285 67.3089 214.355 67.2824 214.39 67.2601C214.416 67.0822 214.422 66.9019 214.405 66.7228C214.381 66.612 214.369 66.4947 214.486 66.4161C214.555 65.9741 214.526 65.5225 214.402 65.0928C214.379 65.0307 214.45 64.935 214.478 64.8561C214.269 64.6501 214.204 64.4393 214.468 64.2356C214.35 64.1236 214.243 64.0386 214.161 63.9405C214.079 63.8424 214.148 63.7853 214.22 63.7313C214.229 63.6928 214.239 63.6544 214.25 63.6155C214.147 63.5495 213.991 63.5278 214.073 63.3316C214.086 63.2841 214.087 63.2344 214.078 63.1861C214.068 63.1379 214.048 63.0924 214.018 63.0532V63.0532C213.817 63.007 213.929 62.7789 213.806 62.6862C213.753 62.6794 213.704 62.6539 213.668 62.6142C213.633 62.5745 213.612 62.5232 213.611 62.4698C213.602 62.4314 213.586 62.3951 213.563 62.3631C213.54 62.3311 213.511 62.304 213.477 62.2834C213.324 62.2647 213.302 62.117 213.225 62.0234C213.148 61.9297 213.043 61.8168 212.87 61.8552C212.548 61.93 212.245 62.0726 211.983 62.2736C211.721 62.4746 211.505 62.7293 211.349 63.0206C211.359 63.0462 211.371 63.0709 211.385 63.0942C211.425 63.1689 211.463 63.2731 211.402 63.3231C211.248 63.4481 211.293 63.654 211.199 63.793C211.206 63.834 211.204 63.876 211.193 63.9162C211.183 63.9564 211.164 63.9939 211.138 64.0263V64.0263C211.154 64.0582 211.164 64.0932 211.166 64.1291C211.168 64.1649 211.162 64.2008 211.149 64.2344C210.995 64.714 210.908 65.2131 210.893 65.7168C210.891 65.7608 210.878 65.8035 210.854 65.8406C210.83 65.8778 210.797 65.908 210.758 65.9283C210.808 66.0371 210.917 66.1274 210.857 66.2694C210.829 66.2214 210.802 66.1746 210.773 66.1283C210.802 66.1746 210.829 66.2214 210.857 66.2694C210.853 66.3868 210.75 66.415 210.677 66.4729C210.679 66.5379 210.652 66.5492 210.602 66.5096C210.547 66.5725 210.486 66.6303 210.42 66.6824C210.337 66.7353 210.225 66.7129 210.224 66.617C210.213 66.3453 210.009 66.1544 209.958 65.9023L209.915 65.8285C209.944 65.7866 209.967 65.7405 209.982 65.6917C209.967 65.7405 209.944 65.7866 209.915 65.8285C209.852 65.7791 209.773 65.7562 209.693 65.7649C209.641 65.7765 209.623 65.7407 209.641 65.6913L209.597 65.6192C209.531 65.6247 209.518 65.5986 209.554 65.5453C209.447 65.5072 209.283 65.502 209.43 65.3222C209.416 65.2616 209.422 65.1968 209.417 65.1326C209.356 65.1551 209.297 65.1845 209.262 65.0906C209.227 64.9968 209.175 64.9012 209.13 64.8075C209.064 64.8131 209.05 64.789 209.089 64.735C209.077 64.6831 209.07 64.6029 209.038 64.5865C208.807 64.4707 208.959 64.4223 209.068 64.3546L209.169 64.196C209.172 64.1054 209.152 64.0156 209.111 63.9346C208.99 63.9615 208.87 64.0027 208.75 64.0421C208.665 64.0609 208.581 64.0995 208.524 64.0068C208.41 63.7887 208.159 63.8135 207.993 63.6886C207.567 63.636 207.37 63.9758 207.111 64.2059C207.13 64.2334 207.141 64.266 207.143 64.2997C207.145 64.3334 207.137 64.3669 207.12 64.3963V64.3963C207.02 64.6109 207.08 64.8537 206.977 65.0799C206.804 65.4616 206.825 65.4768 206.864 65.8223C206.768 66.0711 206.75 66.3429 206.812 66.6021C206.84 66.7319 206.739 66.7688 206.663 66.8275C206.686 66.8732 206.707 66.9194 206.73 66.9652C206.753 67.069 206.637 67.1674 206.72 67.278L206.613 67.4378L206.444 67.143C206.404 67.0739 206.361 67.0035 206.323 66.932C206.361 67.0035 206.404 67.0739 206.444 67.143L206.611 67.4201C206.686 67.5671 206.686 67.6815 206.48 67.6945C206.461 67.922 206.292 68.0139 206.117 68.1017C205.987 68.1671 205.891 68.1121 205.774 68.038C205.628 67.9433 205.461 67.9023 205.427 68.1768C205.408 68.3427 205.301 68.2792 205.211 68.2248C205.157 68.1459 205.121 68.0357 204.994 68.0659C204.762 68.1174 204.614 67.9939 204.496 67.8277C204.444 67.7592 204.406 67.6769 204.32 67.6505C204.035 67.5685 203.859 67.3316 203.624 67.1765C203.522 67.1329 203.417 67.0955 203.31 67.0645C203.286 67.0629 203.262 67.0561 203.24 67.0448C203.219 67.0334 203.2 67.0177 203.184 66.9986C203.169 66.9794 203.158 66.9573 203.151 66.9337C203.145 66.91 203.144 66.8853 203.147 66.861C202.873 66.6894 202.531 66.6163 202.357 66.2972C202.316 66.2247 202.223 66.1254 202.112 66.1935C201.791 66.3828 201.558 66.153 201.299 66.0652C201.377 66.0225 201.459 65.9662 201.531 65.9303C201.453 65.9674 201.37 66.0241 201.299 66.0652L200.876 66.0191C200.848 66.0339 200.817 66.0419 200.786 66.0426C200.755 66.0433 200.724 66.0365 200.695 66.0229C200.377 66.0734 200.06 65.8697 199.739 66.0225C199.693 66.0454 199.627 66.0019 199.599 65.9483C199.473 65.7075 199.214 65.7776 199.03 65.6531C198.955 65.9114 199.304 65.8793 199.252 66.1107C199.052 66.1441 198.886 66.3625 198.636 66.2199C198.561 66.1767 198.502 66.228 198.473 66.3051C198.462 66.3459 198.442 66.384 198.416 66.4172C198.39 66.4505 198.357 66.4782 198.32 66.4989C198.248 66.3995 198.193 66.2891 198.157 66.1719C198.193 66.2891 198.248 66.3995 198.32 66.4989C198.172 66.5417 198.043 66.6332 197.953 66.7585C197.864 66.8839 197.819 67.0357 197.826 67.1895C197.789 67.3503 197.949 67.4819 197.891 67.6438C197.96 67.7021 198.013 67.7772 198.046 67.8619C198.078 67.9467 198.088 68.0382 198.075 68.1279C198.248 68.5137 198.523 68.8456 198.869 69.0884C199.034 69.1909 199.169 69.3351 199.26 69.5066L199.303 69.5787C199.466 69.5589 199.553 69.6559 199.621 69.7842C199.817 69.8496 200.003 69.9423 200.173 70.0595L200.554 70.2365C201.013 70.4992 201.5 70.7104 202.006 70.8661C201.992 70.8832 201.98 70.9023 201.971 70.9228C201.98 70.9028 201.991 70.8839 202.004 70.8664C202.127 70.8635 202.248 70.8958 202.354 70.9596V70.9596L202.473 70.9821C202.652 70.9697 202.778 71.078 202.932 71.1255C202.986 71.1136 203.042 71.0738 203.09 71.0906C203.311 71.145 203.56 71.571 203.497 71.7828C203.473 71.8626 203.378 71.7693 203.317 71.7866C203.318 72.0296 203.284 72.0589 202.992 72.0747C202.84 72.1081 202.682 72.0958 202.537 72.0394C202.225 71.8886 201.87 71.8505 201.533 71.9315L201.417 71.9009L201.301 71.8741L201.158 71.962C201.15 72.0693 201.096 72.0885 201.005 72.0414L200.086 72.6648L200.018 72.7107C200.004 72.7482 199.993 72.7854 199.981 72.8242L199.913 72.8684C199.913 72.9036 199.902 72.9379 199.881 72.9661C199.86 72.9944 199.831 73.015 199.797 73.0249L199.736 73.062C199.521 73.4163 199.327 73.7825 199.154 74.159C199.034 74.4345 199.074 74.787 198.795 74.996L198.735 74.726C198.783 74.702 198.821 74.6622 198.844 74.6133C198.866 74.5644 198.871 74.5093 198.857 74.4574C198.871 74.5093 198.866 74.5644 198.844 74.6133C198.821 74.6622 198.783 74.702 198.735 74.726V74.726L198.793 74.9891C198.789 75.0229 198.777 75.0553 198.757 75.0829C198.737 75.1105 198.71 75.1326 198.679 75.1469C198.73 75.2463 198.8 75.3454 198.737 75.4629C198.666 75.6301 198.626 75.8088 198.619 75.9902C198.547 76.4838 198.503 76.9803 198.737 77.4477C198.858 77.6516 198.95 77.8715 199.009 78.101C199.051 78.1752 199.093 78.2495 199.137 78.3233C199.142 78.3493 199.164 78.3718 199.179 78.3976C199.172 78.3699 199.149 78.3477 199.137 78.3233C199.093 78.2495 199.051 78.1752 199.009 78.101C199.109 78.1428 199.191 78.216 199.245 78.3095C199.298 78.4029 199.32 78.5114 199.306 78.6182V78.6182L199.435 78.8328L199.549 78.8638C199.676 78.6904 199.725 78.8358 199.779 78.9237C199.955 78.9499 199.989 79.2239 200.21 79.1713C200.222 79.0688 200.268 79.0386 200.359 79.0982C200.504 79.115 200.442 79.3413 200.605 79.3413L200.83 79.217C200.93 79.147 201.05 79.1121 201.172 79.1176C201.246 79.0631 201.33 79.0247 201.419 79.0049C201.509 78.985 201.602 78.9842 201.691 79.0024V79.0024C201.688 78.9885 201.685 78.973 201.695 78.9616C201.705 78.9503 201.735 78.9347 201.761 78.947C201.788 78.9269 201.821 78.915 201.855 78.913C201.889 78.9109 201.923 78.9187 201.953 78.9353C201.896 78.9734 201.844 79.0159 201.845 79.0955C201.836 79.1631 201.842 79.2317 201.86 79.2972C201.842 79.2317 201.836 79.1631 201.845 79.0955C201.844 79.0159 201.896 78.9734 201.953 78.9353C202.111 78.8277 202.234 78.6314 202.467 78.6397C202.753 78.4709 202.972 78.1971 203.314 78.1141C203.416 78.0915 203.362 77.9618 203.41 77.8947L203.39 77.8594L203.37 77.8257C203.308 77.8249 203.291 77.8013 203.332 77.7486C203.313 77.723 203.302 77.6922 203.3 77.6602C203.299 77.6281 203.307 77.5963 203.323 77.569V77.569C203.219 77.3743 203.477 77.2771 203.447 77.1038C203.355 76.8338 203.553 76.5792 203.493 76.3092C203.488 76.2884 203.579 76.2465 203.625 76.2164C203.659 76.0564 203.942 76.008 203.816 75.7745L204.005 75.6909C203.996 75.6528 203.965 75.618 203.996 75.5767L204.084 75.6551L204.304 75.5264C204.302 75.4433 204.261 75.3308 204.333 75.2875C204.572 75.1338 204.857 75.0704 205.138 75.1089C205.357 75.1457 205.347 75.3841 205.449 75.5266C205.52 75.6236 205.488 75.6997 205.483 75.8007C205.473 75.9372 205.415 76.0789 205.489 76.2151C205.456 76.4503 205.339 76.6657 205.16 76.8219C205.151 76.8604 205.141 76.9006 205.134 76.9386C205.126 76.9767 205.144 76.9871 205.162 77.0086C205.204 77.0829 205.24 77.1729 205.18 77.2388C205.064 77.3536 204.993 77.5182 204.832 77.5849C204.832 77.5849 204.796 77.5474 204.779 77.5276C204.642 77.6651 204.634 77.8902 204.461 78.0048C204.352 78.1907 204.125 78.2918 204.081 78.5251L203.959 78.4939L204.081 78.5251C204.094 78.5439 204.102 78.5651 204.107 78.5875C204.111 78.6098 204.11 78.6327 204.106 78.6549C204.101 78.6771 204.091 78.6981 204.078 78.7165C204.064 78.7349 204.047 78.7504 204.028 78.762C204.066 78.848 204.126 78.9224 204.203 78.9774C204.311 79.0642 204.308 79.1557 204.2 79.2432C204.447 79.4136 204.44 79.6948 204.505 79.9456C204.682 80.1477 204.746 80.4114 204.89 80.6337C204.971 80.7628 204.911 80.8743 204.799 80.9625C204.798 80.995 204.787 81.0264 204.769 81.0532C204.75 81.08 204.725 81.1013 204.695 81.1146V81.1146L204.772 81.2664C204.793 81.2934 204.805 81.3258 204.808 81.3596C204.811 81.3935 204.804 81.4274 204.787 81.4573L204.829 81.5208C204.915 81.4789 204.994 81.4247 205.064 81.3597C205.219 81.1672 205.283 81.2984 205.355 81.4277L205.817 82.2331L206.195 82.7069C206.277 82.6996 206.32 82.7481 206.351 82.8138L206.395 82.886C206.579 82.8977 206.483 83.0896 206.572 83.1625L206.684 83.2012C206.876 83.2761 207.06 83.3684 207.234 83.4769C207.497 83.4895 207.653 83.7255 207.903 83.779C207.865 83.8033 207.825 83.8253 207.785 83.8451C207.825 83.8253 207.865 83.8033 207.903 83.779C207.93 83.7633 207.96 83.7541 207.991 83.7522C208.023 83.7504 208.054 83.7559 208.082 83.7683L208.169 83.9306L208.082 83.7683C208.301 83.7978 208.47 83.5915 208.692 83.633C208.769 83.578 208.829 83.5017 208.863 83.4135C208.878 83.2758 208.957 83.2366 209.083 83.2756L209.155 83.2397C209.038 83.0224 209.205 82.9782 209.35 82.9205C209.328 82.8713 209.32 82.8172 209.326 82.7638C209.331 82.7103 209.351 82.6592 209.382 82.6155C209.266 82.4597 209.491 82.2881 209.393 82.1319C209.271 81.9519 209.335 81.7815 209.379 81.6029C209.395 81.5358 209.432 81.4404 209.402 81.4C209.222 81.1474 209.322 80.8292 209.188 80.5701C209.027 80.537 208.889 80.4895 209.011 80.2807C209.019 80.1958 209.006 80.1104 208.972 80.0319C208.939 79.9535 208.887 79.8844 208.821 79.8308C208.77 79.7822 208.678 79.7281 208.701 79.6758C208.799 79.3816 208.582 79.1375 208.589 78.8598C208.561 78.6844 208.517 78.5344 208.772 78.456C209.027 78.3776 209.065 78.4982 209.143 78.6444C209.172 78.6925 209.201 78.7406 209.231 78.7865C209.306 78.8034 209.375 78.8437 209.427 78.9016C209.478 78.9596 209.51 79.0323 209.519 79.1095C209.586 79.4851 209.742 79.8316 209.845 80.1957C209.957 80.3651 210.026 80.5678 210.219 80.6758C210.227 80.7156 210.227 80.7775 210.245 80.7952C210.497 80.9481 210.681 81.1199 210.515 81.4454C210.511 81.4593 210.51 81.4738 210.512 81.488C210.514 81.5022 210.519 81.5159 210.527 81.528C210.534 81.5402 210.544 81.5506 210.556 81.5586C210.568 81.5666 210.582 81.572 210.596 81.5745C210.623 81.5835 210.653 81.5824 210.679 81.5712C210.705 81.56 210.727 81.5396 210.739 81.5138C210.84 81.2661 210.956 81.3711 211.076 81.4935C211.103 81.5264 211.128 81.5608 211.152 81.5966V81.5966C211.184 81.6016 211.214 81.6134 211.241 81.6312C211.268 81.649 211.291 81.6723 211.309 81.6997C211.51 81.8628 211.725 82.0084 211.951 82.1348C212.086 82.2069 212.208 82.3029 212.31 82.4184C212.767 82.455 213.127 82.7601 213.556 82.8683C213.76 82.5653 214.071 82.4944 214.408 82.4831C214.453 82.5517 214.518 82.6052 214.593 82.6364C214.518 82.6052 214.453 82.5517 214.408 82.4831C214.536 82.117 214.549 81.7255 214.641 81.3528C214.59 80.7049 214.566 80.0547 214.466 79.4086C214.439 79.0579 214.283 78.7297 214.029 78.4867C213.746 78.2444 213.702 77.8328 213.361 77.6379C213.313 77.6104 213.347 77.5322 213.36 77.4783C213.378 77.4318 213.385 77.3816 213.38 77.3319C213.376 77.2822 213.359 77.2343 213.333 77.192C213.215 77.0366 213.283 76.8672 213.308 76.7018C213.319 76.6358 213.298 76.5441 213.401 76.5468C213.503 76.5495 213.501 76.6372 213.539 76.6976L213.655 76.7265L213.728 76.6867C213.751 76.6705 213.776 76.6559 213.802 76.6431C213.786 76.5721 213.793 76.4906 213.873 76.4639C213.952 76.4371 214.056 76.4687 214.068 76.5241C214.142 76.7945 214.416 76.9536 214.49 77.1913C214.659 77.7386 214.918 78.186 215.444 78.449C215.685 78.4668 215.921 78.5303 216.139 78.6361V78.6361L216.255 78.6684C216.296 78.6614 216.337 78.6626 216.377 78.6719C216.417 78.6811 216.454 78.6983 216.487 78.7223C216.552 78.6952 216.637 78.6583 216.687 78.7035C216.915 78.9126 217.184 78.8712 217.448 78.8579C217.475 78.8412 217.506 78.8319 217.538 78.8313C217.57 78.8306 217.601 78.8385 217.629 78.8541V78.8541C217.805 78.8278 217.981 78.876 218.116 78.7079C218.173 78.6372 218.266 78.7455 218.345 78.7334C218.374 78.7814 218.401 78.8299 218.43 78.878C218.372 78.9134 218.329 78.968 218.308 79.0322C218.329 78.968 218.372 78.9134 218.43 78.878L218.552 78.9109L218.43 78.878C218.401 78.8299 218.374 78.7814 218.345 78.7334C218.346 78.6151 218.444 78.5824 218.522 78.5324C218.529 78.4294 218.578 78.4002 218.672 78.4448C218.712 78.4183 218.745 78.3833 218.769 78.3424C218.794 78.3014 218.809 78.2556 218.814 78.2081C218.864 77.9302 218.877 77.647 218.854 77.3656L218.917 77.3226C218.752 77.1775 218.543 77.0606 218.68 76.7867C218.734 76.6785 218.633 76.6375 218.591 76.5723C218.467 76.4243 218.357 76.2642 218.265 76.0943C218.098 75.6757 217.792 75.3531 217.556 74.9803C217.225 74.7633 216.985 74.4296 216.636 74.2311C216.345 74.0019 216.009 73.8358 215.65 73.7434C215.584 73.7196 215.528 73.6726 215.494 73.611C215.393 73.5335 215.238 73.5406 215.175 73.4056C215.018 73.3678 214.833 73.4416 214.708 73.2822C214.6 73.3352 214.504 73.4256 214.369 73.3919C214.207 73.4788 214.055 73.5668 213.897 73.6474C213.777 73.7066 213.677 73.8287 213.521 73.7652C213.389 73.8236 213.285 73.9701 213.112 73.9104C212.939 73.8942 212.76 74.043 212.594 73.8855C212.566 73.8572 212.522 73.8397 212.539 73.7868C212.605 73.7142 212.705 73.8102 212.772 73.7354C212.79 73.6279 212.709 73.5677 212.662 73.48L212.369 73.5268C212.466 73.2038 212.724 73.0286 212.876 72.7496C213.021 72.8511 213.147 72.9759 213.251 73.1188C213.27 72.822 213.513 72.8082 213.716 72.756L213.789 72.7124C213.796 72.611 213.843 72.5787 213.937 72.6251C214.011 72.4563 214.157 72.5401 214.279 72.5275C214.455 72.487 214.624 72.4195 214.78 72.3274C214.987 72.1918 215.203 72.071 215.427 71.966L215.434 72.146L215.427 71.966C215.709 71.8634 216.024 71.8008 216.241 71.5837C216.621 71.2036 217.118 70.9988 217.521 70.6571L217.538 70.686L217.521 70.6571C217.61 70.6411 217.694 70.6025 217.764 70.545C217.834 70.4874 217.889 70.4129 217.922 70.3284C218.192 69.9618 218.538 69.6572 218.936 69.4352C219.059 69.3735 219.107 69.1558 219.314 69.2861C219.521 69.4163 219.395 69.5549 219.376 69.6972C219.372 69.7253 219.371 69.7536 219.371 69.7818C219.234 69.8449 219.269 70.0932 219.056 70.0733L219.054 70.0737C219.046 70.1844 218.955 70.2246 218.884 70.2821C218.889 70.3046 218.903 70.3252 218.913 70.3483L218.873 70.4607L218.521 70.6785C218.527 70.7028 218.544 70.726 218.554 70.7512C218.53 70.7649 218.507 70.7803 218.486 70.7972L218.351 70.8852L218.328 70.8721L218.351 70.8852C218.334 70.9962 218.233 71.0275 218.158 71.0823L218.083 71.1263L218.047 71.2376C218.023 71.2508 218 71.2657 217.977 71.2822C217.983 71.3082 218.006 71.3303 218.019 71.3565C217.749 71.5162 217.419 71.5423 217.171 71.7517L217.2 71.7907L217.22 71.8261C217.159 71.8615 217.11 71.9032 217.113 71.9807L217.038 72.0226C216.804 71.9746 216.667 72.174 216.481 72.2461L216.333 72.3316L215.756 72.6811C215.753 72.6866 215.751 72.6928 215.75 72.6992C215.75 72.7057 215.751 72.7121 215.753 72.718C215.756 72.7301 215.774 72.7371 215.785 72.7455L215.829 72.8211L215.943 72.8521C215.949 72.8781 215.97 72.9006 215.985 72.9246L216.06 72.8862C216.074 72.9102 216.088 72.9325 216.104 72.9562L216.186 73.1033C216.348 73.1528 216.544 73.1438 216.619 73.345L216.736 73.3773L216.853 73.4058L216.927 73.3639L216.966 73.4423C216.995 73.4886 217.037 73.5256 217.086 73.5491C217.135 73.5726 217.19 73.5815 217.245 73.5749C217.261 73.5986 217.277 73.6222 217.295 73.6455C217.304 73.6706 217.316 73.6947 217.331 73.7174L217.402 73.6763C217.519 73.6811 217.555 73.7767 217.605 73.8563C217.655 73.936 217.688 74.0323 217.806 74.035C217.835 74.0831 217.864 74.1312 217.891 74.1797L217.958 74.1466L218.001 74.217C218.05 74.297 218.084 74.393 218.201 74.3978C218.23 74.4459 218.261 74.4936 218.289 74.54L218.334 74.6173C218.39 74.7138 218.447 74.81 218.503 74.9065C218.584 74.9921 218.663 75.0781 218.742 75.1624C218.655 75.3304 218.898 75.4491 218.808 75.6179C218.788 75.6083 218.77 75.5951 218.754 75.5791C218.77 75.5951 218.788 75.6083 218.808 75.6179V75.6179C218.895 75.7683 219.006 75.9032 219.137 76.0173L219.107 76.1309L219.18 76.0911C219.186 76.1171 219.207 76.1396 219.222 76.1653L219.264 76.2379C219.295 76.2873 219.323 76.3354 219.352 76.3835C219.394 76.4577 219.434 76.5323 219.476 76.6066L219.406 76.6494C219.433 76.6996 219.462 76.7477 219.489 76.7962C219.516 76.8446 219.516 76.8446 219.529 76.8691C219.513 76.8989 219.505 76.9328 219.508 76.9667C219.51 77.0006 219.522 77.0332 219.542 77.0604C219.548 77.0864 219.57 77.1089 219.584 77.1346L219.438 77.2198C219.423 77.1735 219.413 77.126 219.406 77.0779C219.413 77.126 219.423 77.1735 219.438 77.2198V77.2198C219.493 77.3529 219.641 77.4562 219.578 77.63C219.605 77.6802 219.634 77.7283 219.661 77.7768L219.587 77.8204L219.631 77.8943L219.563 77.9385C219.62 78.1073 219.517 78.2663 219.549 78.4319C219.498 78.5213 219.536 78.6527 219.413 78.7053C219.357 78.6651 219.331 78.6817 219.333 78.7484C219.188 78.828 219.215 79.0343 219.05 79.1091C219.007 79.0641 218.963 79.0212 218.919 78.9766C218.963 79.0212 219.007 79.0641 219.05 79.1091C218.872 79.0833 218.796 79.2344 218.686 79.3261C218.696 79.3508 218.709 79.3748 218.723 79.3977L218.649 79.4413C218.636 79.4164 218.622 79.3923 218.606 79.3692L218.676 79.3229L218.606 79.3692L218.459 79.4509L218.503 79.5247L218.428 79.5666L218.385 79.4928L218.31 79.542L218.236 79.5856L218.088 79.6694C218.082 79.6435 218.059 79.6231 218.045 79.599L217.974 79.6402L217.898 79.6825L217.825 79.7223C217.722 79.667 217.645 79.7312 217.562 79.7807L217.446 79.75C217.432 79.7277 217.416 79.7058 217.4 79.6839C217.517 79.6437 217.637 79.6111 217.758 79.5863C217.637 79.6111 217.517 79.6437 217.4 79.6839L217.328 79.7198L217.306 79.6848L217.287 79.6473L217.212 79.6892C217.021 79.6006 216.804 79.5843 216.601 79.6433C216.586 79.6193 216.572 79.5952 216.556 79.5733L216.484 79.6148C216.408 79.5935 216.364 79.4434 216.252 79.5519L216.063 79.5628L216.018 79.4911C215.936 79.4518 215.868 79.3888 215.822 79.3101C215.776 79.2315 215.756 79.1409 215.762 79.0502V79.0502C215.706 79.0478 215.651 79.0426 215.595 79.0346C215.54 79.0187 215.483 79.0142 215.426 79.0214C215.369 79.0286 215.315 79.0473 215.265 79.0765C215.216 79.1056 215.173 79.1445 215.14 79.1907C215.106 79.237 215.082 79.2897 215.07 79.3454V79.3454C215.094 79.5216 215.245 79.637 215.328 79.7859L215.368 79.8605L215.339 79.9759C215.381 80.0592 215.446 80.1336 215.398 80.2407L215.367 80.3547C215.373 80.3824 215.394 80.4049 215.407 80.4293C215.391 80.4589 215.383 80.4925 215.386 80.526C215.388 80.5596 215.4 80.5919 215.42 80.619C215.425 80.6449 215.447 80.6674 215.461 80.6915C215.218 80.8399 215.397 81.049 215.381 81.2305C215.387 81.2582 215.408 81.2807 215.421 81.3051L215.358 81.3482L215.434 81.4947L215.405 81.6084C215.416 81.6342 215.429 81.6593 215.443 81.6834C215.434 81.7236 215.424 81.762 215.413 81.8026L215.341 81.8458C215.344 81.9087 215.349 81.973 215.352 82.0358L215.396 82.1097C215.342 82.1328 215.298 82.1735 215.27 82.2252C215.243 82.2769 215.234 82.3364 215.245 82.3939L215.037 82.7123C214.913 82.9215 214.653 83.0264 214.569 83.2737L214.456 83.2552C214.321 83.3015 214.216 83.4429 214.048 83.3911L213.94 83.5439L213.873 83.577C213.742 83.5335 213.604 83.4206 213.486 83.5994L213.325 83.5078L213.18 83.5909L213.064 83.5585L212.948 83.5279L212.83 83.496L212.715 83.4654L212.595 83.4355C212.571 83.3975 212.533 83.3703 212.489 83.3594C212.445 83.3486 212.398 83.3549 212.359 83.3772C212.307 83.3028 212.237 83.2432 212.155 83.2045C212.13 83.2159 212.107 83.2291 212.084 83.2439L212.04 83.17L211.998 83.0941L211.924 83.1394C211.918 83.1117 211.897 83.0875 211.882 83.0634L211.767 83.029C211.755 82.9719 211.754 82.9103 211.746 82.8521L211.635 82.8186C211.581 82.8263 211.526 82.8175 211.477 82.7933C211.429 82.7691 211.388 82.7307 211.362 82.6831L211.217 82.7589C211.18 82.6998 211.137 82.6513 211.059 82.654C210.937 82.523 210.994 82.3615 210.988 82.2121C210.787 82.3293 210.67 82.2536 210.551 82.0676C210.399 81.8325 210.265 81.844 210.03 82.0722C210.067 82.1313 210.109 82.1801 210.187 82.1792C210.203 82.201 210.217 82.224 210.229 82.2479C210.208 82.2578 210.19 82.2722 210.175 82.2901C210.16 82.3079 210.149 82.3288 210.144 82.3511C210.138 82.3735 210.137 82.397 210.141 82.4198C210.145 82.4426 210.154 82.4642 210.167 82.4832V82.4832L210.136 82.599L210.107 82.7126C210.113 82.7403 210.133 82.7649 210.148 82.789C210.127 82.7987 210.108 82.8129 210.093 82.8306C210.078 82.8482 210.068 82.8689 210.062 82.8912C210.056 82.9135 210.055 82.9368 210.059 82.9595C210.063 82.9822 210.072 83.0037 210.085 83.0226L210.053 83.1405L210.022 83.2563L209.939 83.2984C209.773 83.461 209.654 83.6648 209.594 83.8888L209.565 84.0059L209.424 84.0826C209.243 84.0864 209.128 84.2791 208.938 84.2741C208.793 84.3279 208.735 84.4825 208.612 84.5605C208.509 84.5053 208.433 84.5712 208.349 84.6189C208.293 84.5777 208.224 84.5575 208.155 84.5616C208.085 84.5657 208.02 84.594 207.969 84.6415L207.853 84.6109L207.81 84.5388L207.736 84.5768L207.663 84.6222L207.619 84.5483L207.546 84.5881C207.533 84.5638 207.519 84.5403 207.503 84.5177L207.431 84.5593L207.387 84.4854C207.254 84.515 207.162 84.3973 207.037 84.3815L206.923 84.3488C206.917 84.3228 206.894 84.3007 206.878 84.2787C206.877 84.1338 206.804 84.248 206.762 84.2464L206.72 84.1704L206.647 84.212L206.602 84.1402C206.556 84.0519 206.488 83.9767 206.405 83.9215C206.322 83.8663 206.226 83.8329 206.127 83.8243V83.8243L206.041 83.6853L206.114 83.6382C206.138 83.6495 206.164 83.6554 206.19 83.6556C206.216 83.6557 206.242 83.6501 206.265 83.6392C206.242 83.6501 206.216 83.6557 206.19 83.6556C206.164 83.6554 206.138 83.6495 206.114 83.6382L206.041 83.6853C206.017 83.6932 205.993 83.7028 205.969 83.7139C205.901 83.5537 205.788 83.4166 205.644 83.3194C205.702 83.2285 205.733 83.1471 205.592 83.0875C205.494 83.0369 205.398 82.9812 205.305 82.9207L205.373 82.8782C205.368 82.8523 205.349 82.8272 205.337 82.8028L205.293 82.7363C205.268 82.7474 205.243 82.7601 205.22 82.7743V82.7743C205.171 82.6943 205.135 82.5987 205.017 82.5922L204.997 82.5568L204.976 82.5214L204.893 82.3746C204.928 82.3197 204.913 82.2956 204.849 82.2991L204.675 82.0088C204.67 81.9829 204.652 81.9596 204.639 81.9352L204.739 81.7731C204.74 81.8406 204.755 81.9073 204.783 81.9687C204.755 81.9073 204.74 81.8406 204.739 81.7731L204.653 81.6306C204.619 81.6292 204.586 81.618 204.558 81.5985C204.531 81.5789 204.509 81.5517 204.496 81.5201V81.5201L204.385 81.4884C204.409 81.4755 204.431 81.4603 204.452 81.4428L204.455 81.4567C204.475 81.4374 204.496 81.4198 204.519 81.4042C204.428 81.2794 204.306 81.1812 204.164 81.1199C204.168 80.9983 204.132 80.8788 204.063 80.7791V80.7791C204.12 80.6756 204.054 80.5995 204.005 80.5195C203.999 80.4918 203.978 80.4693 203.963 80.4435C203.805 80.1752 203.791 79.8242 203.499 79.6384C203.52 79.6287 203.538 79.6145 203.553 79.5969C203.568 79.5792 203.579 79.5584 203.585 79.5361C203.59 79.5138 203.591 79.4905 203.587 79.4679C203.583 79.4452 203.573 79.4238 203.56 79.4051L203.515 79.3317L203.433 79.1845C203.442 79.1461 203.452 79.1076 203.464 79.0688L203.534 79.0276L203.578 79.0998L203.534 79.0276L203.464 79.0688C203.392 78.934 203.332 78.9982 203.273 79.0801C203.181 79.0333 203.119 79.0798 203.046 79.1304C202.894 79.2772 202.72 79.4007 202.532 79.497L202.387 79.5835C202.249 79.5235 202.159 79.6342 202.045 79.6794C201.92 79.8017 201.703 79.777 201.602 79.9356C201.574 79.921 201.543 79.9141 201.511 79.9157C201.48 79.9172 201.449 79.9272 201.423 79.9446C201.319 79.8894 201.243 79.9553 201.159 80.003C201.075 79.9422 200.972 79.9122 200.868 79.9181C200.764 79.924 200.666 79.9653 200.589 80.0352C200.556 80.0092 200.519 79.9903 200.479 79.9798C200.439 79.9692 200.398 79.9673 200.357 79.974L200.239 79.9437C200.087 79.8941 199.962 79.7402 199.774 79.8217C199.761 79.7913 199.739 79.7653 199.711 79.7467C199.684 79.7281 199.652 79.7176 199.618 79.7165C199.624 79.7424 199.645 79.765 199.658 79.7894L199.588 79.8267C199.598 79.7899 199.607 79.7536 199.615 79.7173C199.583 79.6906 199.546 79.6709 199.506 79.6594C199.467 79.6479 199.425 79.6448 199.384 79.6505L199.268 79.6199L199.138 79.4035L199.185 79.4022L199.138 79.4035L199.022 79.3712L198.842 79.3784C198.836 79.3507 198.811 79.329 198.797 79.3067C198.768 79.2569 198.741 79.2084 198.713 79.1582C198.77 79.0548 198.704 78.9786 198.655 78.8951C198.69 78.8424 198.676 78.8184 198.611 78.823L198.495 78.7907C198.482 78.7601 198.459 78.734 198.432 78.7154C198.404 78.6969 198.371 78.6866 198.337 78.6858C198.331 78.6581 198.308 78.636 198.292 78.6123L198.167 78.3913L198.197 78.2756L198.264 78.2335L198.156 78.2014L198.112 78.1292C198.085 78.0808 198.056 78.0309 198.027 77.9829C198.078 77.9171 198.072 77.8894 198.007 77.8929ZM197.688 67.6324C197.731 67.7178 197.779 67.8006 197.832 67.8801C197.779 67.8006 197.731 67.7178 197.688 67.6324V67.6324ZM215.053 64.3272C215.036 64.3063 215.021 64.2843 215.006 64.2615C215.021 64.2843 215.036 64.3063 215.053 64.3272V64.3272ZM214.817 64.2616L214.859 64.2524L214.817 64.2616C214.788 64.2433 214.753 64.2368 214.719 64.2435C214.753 64.2368 214.788 64.2433 214.817 64.2616V64.2616ZM217.506 68.4139C217.472 68.3343 217.446 68.2747 217.422 68.2293C217.446 68.2747 217.472 68.3343 217.506 68.4139ZM216.082 68.8407L216.041 68.7789C216.045 68.7997 216.063 68.8195 216.074 68.8387L215.993 68.9639L216.082 68.8407ZM214.229 69.7129C214.19 69.6889 214.149 69.6682 214.106 69.6511C214.149 69.6682 214.19 69.6889 214.229 69.7129C214.252 69.6964 214.272 69.6766 214.289 69.6543C214.272 69.6766 214.252 69.6964 214.229 69.7129V69.7129ZM215.02 66.3141C215.015 66.2443 215.004 66.175 214.988 66.1068C215.004 66.1733 215.014 66.2409 215.019 66.3089L215.02 66.3141ZM214.423 64.5307C214.422 64.4861 214.434 64.4423 214.458 64.4047C214.482 64.3671 214.517 64.3374 214.557 64.3192V64.3192C214.517 64.3379 214.483 64.3678 214.459 64.4052C214.435 64.4427 214.422 64.4863 214.423 64.5307V64.5307ZM210.424 64.5261C210.45 64.5311 210.475 64.5546 210.503 64.5992C210.47 64.5557 210.445 64.5323 210.418 64.5273L210.424 64.5261ZM210.563 65.0546C210.557 65.0286 210.535 65.0044 210.521 64.9821L210.579 64.8894L210.521 64.9821C210.53 65.0055 210.543 65.0317 210.557 65.0557L210.563 65.0546ZM210.052 65.4656C210.039 65.4676 210.025 65.4706 210.012 65.4744V65.4744C210.024 65.4712 210.035 65.4686 210.047 65.4668L210.052 65.4656ZM209.894 64.7508L209.776 64.7206L209.894 64.7508ZM209.092 64.7235C209.121 64.7065 209.147 64.6842 209.168 64.6575C209.145 64.6851 209.118 64.7079 209.086 64.7246L209.092 64.7235ZM208.31 63.2062C208.304 63.1802 208.283 63.1577 208.27 63.1333C208.291 63.1002 208.299 63.0601 208.291 63.0216C208.299 63.0601 208.291 63.1002 208.27 63.1333C208.278 63.1589 208.292 63.1829 208.305 63.2073L208.31 63.2062ZM206.496 67.5818L206.61 67.4205L206.495 67.5749L206.496 67.5818ZM206.295 67.2233C206.255 67.1702 206.2 67.1305 206.137 67.1094C206.109 67.093 206.076 67.0862 206.044 67.0902C206.076 67.0862 206.109 67.093 206.137 67.1094C206.2 67.1305 206.255 67.1702 206.295 67.2233V67.2233ZM206.076 68.04C206.128 68.0234 206.173 67.9912 206.205 67.9479C206.173 67.9913 206.128 68.023 206.076 68.0383L206.076 68.04ZM204.859 67.1151C204.874 67.1435 204.881 67.175 204.879 67.2068C204.881 67.175 204.874 67.1435 204.859 67.1151V67.1151ZM205.236 67.7252C205.149 67.5422 205.017 67.3841 204.852 67.2655V67.2655C205.017 67.3841 205.149 67.5422 205.236 67.7252V67.7252ZM200.889 66.0126L200.881 66.027L200.889 66.0126ZM199.712 65.5164C199.891 65.5039 199.891 65.5022 199.774 65.2849C199.753 65.2943 199.734 65.3083 199.719 65.3258C199.704 65.3433 199.694 65.3639 199.688 65.386C199.682 65.4082 199.681 65.4314 199.685 65.454C199.69 65.4765 199.699 65.4978 199.712 65.5164C199.643 65.4769 199.565 65.4555 199.486 65.454C199.564 65.4563 199.641 65.478 199.709 65.5171L199.712 65.5164ZM203.032 71.9515C203.02 71.9234 203.005 71.8969 202.987 71.8724C203.005 71.8969 203.02 71.9234 203.032 71.9515V71.9515ZM202.481 71.6014C202.42 71.5532 202.377 71.4863 202.357 71.4109C202.376 71.4877 202.42 71.5559 202.482 71.6048L202.481 71.6014ZM199.061 73.9453C199.06 73.9919 199.053 74.0382 199.039 74.0828C199.053 74.0382 199.06 73.9919 199.061 73.9453V73.9453ZM198.778 74.3043C198.76 74.2863 198.74 74.27 198.72 74.2554C198.743 74.269 198.766 74.2847 198.786 74.3023L198.778 74.3043ZM204.76 77.5172C204.735 77.4691 204.693 77.431 204.644 77.4087C204.7 77.4293 204.747 77.4698 204.776 77.5228L204.76 77.5172ZM204.476 76.0148C204.47 75.9982 204.462 75.9823 204.453 75.9673C204.462 75.9823 204.47 75.9982 204.476 76.0148C204.423 76.0702 204.361 76.1185 204.31 76.1752C204.377 76.1241 204.438 76.0741 204.492 76.0204L204.476 76.0148ZM204.31 77.5861C204.259 77.5505 204.206 77.5181 204.151 77.489C204.211 77.5193 204.27 77.5536 204.326 77.5917L204.31 77.5861ZM203.808 76.6316C203.774 76.6175 203.745 76.5945 203.723 76.5651C203.702 76.5356 203.689 76.5008 203.685 76.4645C203.689 76.5008 203.702 76.5356 203.723 76.5651C203.745 76.5945 203.774 76.6175 203.808 76.6316V76.6316ZM213.356 73.3134C213.402 73.3976 213.462 73.4715 213.578 73.4204C213.46 73.4628 213.402 73.3976 213.356 73.3134ZM213.677 73.3692C213.703 73.4124 213.742 73.4464 213.788 73.4664C213.742 73.4464 213.703 73.4124 213.677 73.3692L213.711 73.2527L213.677 73.3692ZM213.632 73.1069C213.641 73.0667 213.651 73.0283 213.662 72.9894C213.651 73.0283 213.641 73.0667 213.632 73.1069ZM213.738 72.7673L213.744 72.795L213.738 72.7673ZM213.797 73.2064L213.682 73.1792L213.797 73.2064L213.872 73.1679L213.797 73.2064ZM214.253 73.3359L214.374 73.3546L214.253 73.3359ZM214.298 72.7211C214.305 72.7488 214.324 72.7717 214.339 72.7975L214.298 72.7211C214.316 72.692 214.323 72.6577 214.319 72.624C214.323 72.6581 214.315 72.6925 214.297 72.7215L214.298 72.7211ZM214.337 72.7979C214.368 72.8456 214.397 72.8937 214.426 72.9417C214.395 72.894 214.366 72.846 214.336 72.7983L214.337 72.7979ZM214.509 73.2773L214.591 73.2391L214.61 73.2349L214.591 73.2391L214.509 73.2773ZM214.433 72.8258C214.459 72.8461 214.481 72.8714 214.498 72.9002V72.9002C214.481 72.8714 214.458 72.8462 214.431 72.8262L214.433 72.8258ZM214.762 72.8453L214.622 72.9272L214.502 72.8994L214.622 72.9272L214.762 72.8453ZM215.046 73.1763L215.091 73.15L215.046 73.1763ZM215.225 72.975C215.242 72.9625 215.258 72.948 215.272 72.9319C215.258 72.9475 215.242 72.9613 215.225 72.9733L215.225 72.975ZM218.363 70.0799C218.384 70.0236 218.42 69.9737 218.466 69.9349C218.512 69.8961 218.567 69.8696 218.626 69.858C218.567 69.8696 218.512 69.8961 218.466 69.9349C218.42 69.9737 218.384 70.0236 218.363 70.0799L218.231 70.1727L218.363 70.0799ZM215.983 72.934L215.532 73.1939L215.983 72.934C216.014 72.9944 216.058 73.0467 216.113 73.0868C216.058 73.0467 216.014 72.9944 215.983 72.934ZM216.379 73.7778L216.292 73.6881L216.379 73.7778C216.434 73.7857 216.484 73.8142 216.519 73.8576C216.484 73.8142 216.434 73.7857 216.379 73.7778V73.7778ZM218.338 79.227C218.352 79.2893 218.35 79.3551 218.357 79.4189C218.35 79.3551 218.345 79.2908 218.338 79.227V79.227ZM216.073 79.123C216.089 79.1376 216.131 79.1482 216.145 79.1378C216.242 79.0582 216.127 79.0057 216.116 78.9392C216.138 78.9392 216.161 78.9442 216.181 78.9537C216.202 78.9633 216.22 78.9771 216.235 78.9944C216.22 78.9771 216.202 78.9633 216.181 78.9537C216.161 78.9442 216.138 78.9392 216.116 78.9392V78.9392C216.057 78.994 215.975 79.0412 216.073 79.123ZM213.096 83.3572C212.985 83.2556 212.879 83.1481 212.779 83.0352C212.802 82.9971 212.833 82.964 212.87 82.9378C212.906 82.9117 212.947 82.893 212.991 82.8829C212.947 82.893 212.906 82.9117 212.87 82.9378C212.833 82.964 212.802 82.9971 212.779 83.0352C212.879 83.1481 212.985 83.2556 213.096 83.3572V83.3572ZM212.114 82.9195C212.102 82.8987 212.094 82.8758 212.092 82.8521C212.089 82.8283 212.091 82.8043 212.098 82.7814C212.091 82.8043 212.089 82.8283 212.092 82.8521C212.094 82.8758 212.102 82.8987 212.114 82.9195C212.092 82.9254 212.069 82.9267 212.047 82.9233C212.07 82.9268 212.093 82.9254 212.115 82.9191L212.114 82.9195ZM209.935 81.0855C209.89 81.0644 209.851 81.0333 209.82 80.9947V80.9947C209.852 81.0334 209.892 81.0644 209.937 81.0851L209.935 81.0855ZM209.318 79.6625C209.3 79.5343 209.243 79.4146 209.156 79.3188V79.3188C209.244 79.4143 209.301 79.5339 209.32 79.6621L209.318 79.6625ZM209.533 82.5567C209.511 82.5636 209.491 82.573 209.472 82.5848V82.5848C209.491 82.5727 209.512 82.5632 209.534 82.5563L209.533 82.5567ZM209.501 83.1504C209.512 83.1905 209.518 83.2321 209.517 83.2738C209.518 83.232 209.514 83.1903 209.503 83.15L209.501 83.1504ZM209.384 82.9348L209.355 82.9284L209.384 82.9348ZM209.304 83.8768C209.265 83.863 209.228 83.8444 209.194 83.8214C209.163 83.8466 209.129 83.8676 209.093 83.8837C209.129 83.8676 209.163 83.8466 209.194 83.8214C209.228 83.8444 209.266 83.8629 209.306 83.8765L209.304 83.8768ZM209.078 83.8906L208.968 83.9277L209.078 83.8906ZM208.536 84.1924L208.701 84.0269L208.535 84.1945C208.479 84.1301 208.412 84.0761 208.338 84.0349C208.413 84.0745 208.481 84.1272 208.538 84.1903L208.536 84.1924ZM207.595 84.441C207.71 84.3797 207.809 84.2912 207.882 84.1832C207.809 84.2912 207.71 84.3797 207.595 84.441C207.568 84.3979 207.538 84.3567 207.505 84.3177C207.538 84.356 207.569 84.3965 207.597 84.4389L207.595 84.441ZM206.328 83.1242C206.318 83.0603 206.327 82.995 206.355 82.9365C206.325 82.9942 206.313 83.0595 206.32 83.124L206.328 83.1242ZM206.395 83.5742L206.51 83.6048C206.546 83.5536 206.573 83.4967 206.589 83.4366C206.573 83.4967 206.546 83.5536 206.51 83.6048L206.395 83.5742C206.373 83.5833 206.352 83.594 206.333 83.6061C206.353 83.5932 206.374 83.5818 206.396 83.5721L206.395 83.5742ZM205.741 82.2664C205.722 82.247 205.703 82.2258 205.682 82.2068C205.711 82.2312 205.731 82.2524 205.75 82.2718L205.741 82.2664ZM204.964 81.8939C204.923 81.7995 204.897 81.6964 204.861 81.5991C204.904 81.6949 204.935 81.7968 204.971 81.8924L204.964 81.8939ZM204.474 81.4434L204.479 81.4676L204.474 81.4434ZM203.645 78.4709L203.717 78.435L203.645 78.4709L203.528 78.4407L203.645 78.4709ZM203.528 78.4407L203.306 78.5716L203.528 78.4407ZM202.33 79.4327C202.376 79.3739 202.416 79.3109 202.45 79.2445C202.416 79.3109 202.376 79.3739 202.33 79.4327L202.033 79.6021L202.33 79.4327ZM199.296 78.6239C199.286 78.6511 199.282 78.6799 199.282 78.7087C199.283 78.6772 199.289 78.6461 199.302 78.6172L199.296 78.6239ZM199.03 79.1714C199.065 79.1164 199.088 79.0544 199.096 78.9898C199.104 78.9252 199.098 78.8595 199.078 78.7975C199.098 78.8595 199.104 78.9252 199.096 78.9898C199.088 79.0544 199.065 79.1164 199.03 79.1714C199.011 79.1534 198.985 79.143 198.958 79.1419C198.986 79.1397 199.014 79.1478 199.036 79.1646L199.03 79.1714Z" fill="#272726"/>
<path d="M203.603 67.2206C203.603 67.2206 203.614 67.1981 203.621 67.1875C203.63 67.229 203.622 67.2417 203.603 67.2206Z" fill="#272726"/>
<path d="M206.755 67.2866C206.755 67.2866 206.734 67.2749 206.721 67.2668C206.763 67.2593 206.776 67.2674 206.755 67.2866Z" fill="#272726"/>
<path d="M198.302 65.6308L198.345 65.7029L198.229 65.6761L198.302 65.6308Z" fill="#272726"/>
<path d="M22.3306 43.7373C19.9609 42.132 16.852 42.668 14.1526 43.1143C12.7453 43.4516 11.2841 43.4996 9.85775 43.2552C8.01566 42.9046 6.30342 42.0601 4.90395 40.812C2.70633 38.7291 4.12948 35.3961 6.56953 34.2028C8.01086 33.6972 9.5777 33.6752 11.0327 34.14C12.4103 34.4832 13.2598 35.8445 14.7728 35.5403C14.8759 35.527 14.973 35.4846 15.0529 35.4182C15.1328 35.3517 15.1921 35.2639 15.224 35.165C15.2558 35.066 15.2588 34.9601 15.2327 34.8595C15.2066 34.7589 15.1523 34.6678 15.0764 34.5969C13.6682 33.0874 12.6312 29.9366 13.8466 28.0822C15.368 25.592 19.7574 27.2238 21.5479 28.5813C24.2846 30.761 22.9873 34.0878 22.5151 36.987C22.1835 38.646 21.9717 40.3266 21.8814 42.016C22.0476 43.387 22.4009 44.7288 22.9313 46.0038L23.5286 45.2955C22.2253 44.7704 21.0186 44.0318 19.9581 43.1101C19.4023 42.7321 18.7183 43.5497 19.2817 43.9386C20.5057 44.9575 21.8917 45.764 23.3823 46.3246C23.4739 46.3374 23.5673 46.3267 23.6537 46.2936C23.7401 46.2604 23.8167 46.206 23.8764 46.1352C23.936 46.0645 23.9767 45.9798 23.9948 45.889C24.0128 45.7983 24.0076 45.7044 23.9795 45.6162C23.8022 44.9787 23.5843 44.3532 23.3273 43.7434C23.0098 42.8609 22.9097 41.9148 23.0354 40.9854C23.215 39.3961 23.3794 37.7849 23.7001 36.2114C24.2104 33.7412 24.9639 30.8253 23.191 28.6746C20.7845 25.7771 13.2376 23.7226 12.3637 28.9675C12.2118 30.125 12.3147 31.3017 12.6651 32.4153C13.0155 33.5289 13.605 34.5525 14.3924 35.4145L14.696 34.4711C13.4666 34.6919 12.4102 33.3606 11.2609 33.1352C9.99734 32.8323 8.69086 32.7505 7.39934 32.8933C6.40589 33.1183 5.48573 33.5916 4.7249 34.2689C3.96408 34.9462 3.38745 35.8054 3.04894 36.7661C1.04959 41.8667 8.61516 45.0471 12.7155 44.4395C15.4936 44.0361 19.1186 42.8156 21.6466 44.5548C22.21 44.9438 22.9488 44.0881 22.3306 43.7373Z" fill="#222221"/>
<path d="M21.7761 43.0662C22.1939 38.5453 24.4363 32.2506 20.7227 28.4565C18.7272 26.477 15.777 25.1129 13.6964 27.2438C12.7752 28.1482 12.0512 29.2335 11.5701 30.4315C11.2142 32.0946 13.0456 33.2772 13.5829 34.7744C12.4141 34.4975 11.6995 33.4002 10.5373 33.0862C8.84272 32.6382 7.40655 33.6374 6.16153 34.7477C3.93653 36.8814 2.51244 40.5405 5.45844 42.6234C8.23522 44.58 10.2902 44.1428 13.5597 43.674C15.0526 43.4813 15.8149 43.9923 17.2778 44.3411C19.0987 44.6198 20.7199 43.98 22.2282 45.3061L21.7761 43.0662Z" fill="white"/>
<path d="M22.2977 43.1633C22.7632 38.8045 24.5742 33.7373 22.2249 29.6123C21.673 28.6539 20.9336 27.8166 20.0508 27.1505C19.1681 26.4843 18.16 26.003 17.087 25.7353C14.8366 25.2835 13.2712 26.6817 12.0606 28.4026C11.6922 28.8054 11.4127 29.2812 11.2405 29.7991C11.0682 30.317 11.0069 30.8654 11.0607 31.4086C11.363 32.8253 12.5314 33.6394 13.053 34.9035L13.6731 34.228C12.3689 33.8501 11.5594 32.6398 10.166 32.4378C9.02544 32.3267 7.88487 32.6496 6.97187 33.3423C6.00696 33.9774 5.18175 34.8027 4.5467 35.7677C3.91164 36.7326 3.48009 37.817 3.27843 38.9545C3.01879 41.3641 4.64866 43.0285 6.71941 43.947C8.83479 44.6853 11.1194 44.7918 13.2943 44.2535C14.9383 44.0208 16.2678 44.7391 17.8561 44.8706C19.4444 45.002 20.6938 44.6697 21.8913 45.6425C22.0008 45.7221 22.1364 45.7571 22.2707 45.7405C22.4051 45.7239 22.5281 45.6569 22.6149 45.5531C22.7018 45.4493 22.746 45.3164 22.7386 45.1812C22.7313 45.0461 22.6729 44.9187 22.5752 44.825C21.6445 44.1202 20.4943 43.7676 19.3285 43.8299C18.567 43.8531 17.8052 43.8 17.0543 43.6713C16.4179 43.5283 15.8092 43.2848 15.1037 43.2062C13.7267 43.1101 12.343 43.1974 10.989 43.4657C9.73799 43.6335 8.46488 43.4843 7.2866 43.0317C6.5759 42.8196 5.93163 42.4284 5.41565 41.8956C4.89967 41.3628 4.52929 40.7064 4.34006 39.9893C4.25619 38.561 4.73193 37.1562 5.66641 36.0728C6.51667 34.749 7.85711 33.8164 9.39388 33.4794C11.0027 33.3363 12.0157 34.9093 13.4753 35.2767C13.5671 35.2941 13.6618 35.2871 13.7501 35.2564C13.8383 35.2257 13.917 35.1724 13.9782 35.1018C14.0394 35.0312 14.081 34.9459 14.0989 34.8542C14.1168 34.7625 14.1103 34.6677 14.0802 34.5793C13.6173 33.4696 12.6305 32.6593 12.2157 31.5487C11.8009 30.438 12.8653 28.9979 13.6622 28.0855C14.021 27.5813 14.5164 27.1902 15.0901 26.9582C15.6638 26.7263 16.2918 26.6632 16.9002 26.7764C18.144 27.0993 19.274 27.7603 20.1651 28.6862C23.9807 32.3931 21.7259 38.4361 21.2457 42.9841C21.1737 43.6524 22.2224 43.8502 22.2977 43.1633Z" fill="#222221"/>
<defs>
<clipPath id="clip0_496_74861">
<rect width="38.08" height="42.52" fill="white" transform="translate(49.7266 74.6016) rotate(-12.5064)"/>
</clipPath>
</defs>
</svg>
