<svg width="64" height="65" viewBox="0 0 64 65" fill="none" xmlns="http://www.w3.org/2000/svg">
<g clip-path="url(#clip0_2238_5495)">
<circle cx="22.5" cy="41.5" r="22.5" fill="#54E6CC"/>
<path d="M63.9709 10.3399C64.1805 9.36405 63.2239 8.54126 62.2906 8.89735L21.8106 24.3503C21.3234 24.5363 21.0011 25.0033 21.0001 25.5247C20.9991 26.0463 21.3195 26.5145 21.806 26.7024L33.1777 31.0943V44.9275C33.1777 45.511 33.5783 46.0181 34.1461 46.153C34.71 46.2872 35.2981 46.0188 35.5625 45.4944L40.2656 36.1614L51.7431 44.6793C52.4413 45.1975 53.4448 44.8679 53.6989 44.0352C64.4151 8.90012 63.9518 10.4281 63.9709 10.3399V10.3399ZM53.9785 14.7673L34.2589 28.8109L25.7742 25.5341L53.9785 14.7673ZM35.6972 30.8797L52.8859 18.6385C38.0952 34.2418 38.8677 33.4205 38.8032 33.5074C38.7074 33.6363 38.9699 33.1338 35.6972 39.6283V30.8797ZM51.8101 41.5915L41.7072 34.0938L59.9745 14.8227L51.8101 41.5915Z" fill="#B67DFA"/>
<line x1="20.8438" y1="33.4056" x2="7.40556" y2="44.1562" stroke="#FFDEA8" stroke-width="2" stroke-linecap="round"/>
<line x1="28.917" y1="39.4118" x2="21.4118" y2="46.083" stroke="#FFDEA8" stroke-width="2" stroke-linecap="round"/>
</g>
<defs>
<clipPath id="clip0_2238_5495">
<rect width="63.99" height="64.03" fill="white"/>
</clipPath>
</defs>
</svg>
