<svg width="64" height="65" viewBox="0 0 64 65" fill="none" xmlns="http://www.w3.org/2000/svg">
<g clip-path="url(#clip0_2238_5502)">
<path d="M42.3141 41.7995C45.2963 41.7995 47.7138 39.382 47.7138 36.3998C47.7138 33.4176 45.2963 31 42.3141 31C39.3319 31 36.9143 33.4176 36.9143 36.3998C36.9143 39.382 39.3319 41.7995 42.3141 41.7995Z" fill="#B67DFA"/>
<path d="M42.6359 41.8042C37.3649 41.8042 33.0184 46.1691 33 51.4401H52.2763C52.2763 46.1553 47.9252 41.8042 42.6404 41.8042H42.6359Z" fill="#B67DFA"/>
<path d="M20.25 43.0601C26.7338 43.0601 31.99 37.8039 31.99 31.3201C31.99 24.8363 26.7338 19.5801 20.25 19.5801C13.7662 19.5801 8.51001 24.8363 8.51001 31.3201C8.51001 37.8039 13.7662 43.0601 20.25 43.0601Z" fill="#B67DFA"/>
<path d="M20.95 43.0701C9.49001 43.0701 0.04 52.5601 0 64.0201H41.91C41.91 52.5301 32.45 43.0701 20.96 43.0701H20.95Z" fill="#54E6CC"/>
<path d="M51.3141 54.7995C54.2963 54.7995 56.7138 52.382 56.7138 49.3998C56.7138 46.4176 54.2963 44 51.3141 44C48.3319 44 45.9143 46.4176 45.9143 49.3998C45.9143 52.382 48.3319 54.7995 51.3141 54.7995Z" fill="#FFDEA8"/>
<path d="M51.6359 54.8042C46.3649 54.8042 42.0184 59.1691 42 64.4401H61.2763C61.2763 59.1553 56.9252 54.8042 51.6404 54.8042H51.6359Z" fill="#FFDEA8"/>
</g>
<defs>
<clipPath id="clip0_2238_5502">
<rect width="63.99" height="64.03" fill="white"/>
</clipPath>
</defs>
</svg>
