<svg width="64" height="65" viewBox="0 0 64 65" fill="none" xmlns="http://www.w3.org/2000/svg">
<rect x="22.3043" y="3" width="34.6957" height="34.6957" fill="#FFDEA8"/>
<path d="M30.9783 19.1086H49.333V21.4229H30.9783V19.1086Z" fill="#FFF9EF"/>
<path d="M30.9783 24.0459H49.333V26.3602H30.9783V24.0459Z" fill="#FFF9EF"/>
<path d="M30.9783 28.9829H49.333V31.2972H30.9783V28.9829Z" fill="#FFF9EF"/>
<rect x="40.8914" y="9.19556" width="8.67391" height="8.67391" fill="#FFF9EF"/>
<rect y="15.3914" width="34.6957" height="34.6957" fill="#54E6CC"/>
<path d="M7.43481 31.5H25.7896V33.8143H7.43481V31.5Z" fill="#CBFEF5"/>
<path d="M7.43481 36.4373H25.7896V38.7515H7.43481V36.4373Z" fill="#CBFEF5"/>
<path d="M7.43481 41.3743H25.7896V43.6886H7.43481V41.3743Z" fill="#CBFEF5"/>
<rect x="17.3479" y="21.5869" width="8.67391" height="8.67391" fill="#CBFEF5"/>
<path d="M43 50H57.8126V51.8677H43V50Z" fill="white"/>
<path d="M43 53.9844H57.8126V55.8521H43V53.9844Z" fill="white"/>
<path d="M43 57.9688H57.8126V59.8364H43V57.9688Z" fill="white"/>
<rect x="51" y="42" width="7" height="7" fill="white"/>
<g clip-path="url(#clip0_2238_5516)">
<path d="M45.8651 25.9176C40.6419 20.6944 32.1407 20.6944 26.9175 25.9176C21.6955 31.142 21.6955 39.642 26.9175 44.8663C31.5689 49.5166 38.8133 50.0148 44.0331 46.3836C44.1429 46.9033 44.3943 47.3993 44.7985 47.8035L52.4051 55.4101C53.5136 56.5164 55.3049 56.5164 56.4078 55.4101C57.5151 54.3028 57.5151 52.5115 56.4078 51.4075L48.8011 43.7986C48.3991 43.3978 47.9021 43.1453 47.3824 43.0354C51.0158 37.8145 50.5176 30.5713 45.8651 25.9176ZM43.4635 42.4648C39.564 46.3644 33.2175 46.3644 29.3191 42.4648C25.4218 38.5652 25.4218 32.2199 29.3191 28.3203C33.2175 24.4219 39.564 24.4219 43.4635 28.3203C47.3631 32.2199 47.3631 38.5652 43.4635 42.4648Z" fill="#B67DFA"/>
</g>
<defs>
<clipPath id="clip0_2238_5516">
<rect width="34.239" height="34.239" fill="white" transform="translate(23 22)"/>
</clipPath>
</defs>
</svg>
